<?xml version="1.0" encoding="UTF-8"?>
<svg version="1.1" xmlns="http://www.w3.org/2000/svg" width="1024" height="1024">
<path d="M0 0 C20.70142508 15.9470308 35.26211045 37.52432258 39.21435547 63.6953125 C42.17113412 89.21391445 37.02291414 114.46188293 21.51171875 135.26171875 C18.64383434 138.7311847 15.62225354 142.00979601 12.51171875 145.26171875 C11.59132813 146.29425781 11.59132813 146.29425781 10.65234375 147.34765625 C2.39644951 156.27390088 -11.46276393 165.98185694 -23.55078125 168.26171875 C-29.79254607 168.26171875 -34.48073676 166.8764828 -39.36328125 162.94921875 C-44.18611473 156.84975287 -45.37573161 151.91129088 -44.48828125 144.26171875 C-42.43584322 137.98367301 -37.86476918 134.03646778 -32.125 131.01953125 C-31.29613281 130.62507812 -30.46726562 130.230625 -29.61328125 129.82421875 C-17.84579398 124.21725213 -10.00069423 115.73847518 -4.17578125 104.26171875 C-3.83796631 103.5972876 -3.50015137 102.93285645 -3.15209961 102.24829102 C2.91200165 89.75940417 3.72289124 74.52991817 -0.11328125 61.19921875 C-6.04661601 45.03243206 -16.04439256 32.9670746 -31.48828125 25.26171875 C-47.32930277 19.00140238 -63.17342261 18.40163015 -79.140625 24.703125 C-93.25679252 31.30906224 -104.29415407 41.79870124 -110.421875 56.23828125 C-116.26629244 72.80816805 -115.85553143 88.51898055 -108.36328125 104.51171875 C-101.04364228 118.24373051 -90.15904245 126.75154899 -76.40625 133.48828125 C-72.30690853 135.97971502 -70.13779503 138.76783705 -68.23828125 143.13671875 C-66.74526414 149.35762338 -67.14563286 153.86134872 -70.23828125 159.40234375 C-73.35884218 164.04417813 -76.91031614 166.3754457 -82.23828125 167.76171875 C-93.0498377 169.40275857 -102.84582368 163.17000864 -111.48828125 157.26171875 C-132.42212645 141.83472462 -146.18336317 120.65285063 -151.08911133 95.08203125 C-154.83290178 68.63049161 -149.65922251 42.86673549 -133.859375 21.28515625 C-101.86177055 -19.515743 -43.45860286 -30.35962053 0 0 Z " fill="#00AA13" transform="translate(258.48828125,433.73828125)"/>
<path d="M0 0 C0.33 -3.3 0.66 -6.6 1 -10 C10.9 -10 20.8 -10 31 -10 C31.0679315 4.89998969 31.12310599 19.79989913 31.15543652 34.70000744 C31.17085252 41.61964176 31.19184016 48.53917246 31.22631836 55.45874023 C31.25961131 62.14366889 31.27688243 68.82846798 31.28463173 75.51348305 C31.29015023 78.05659994 31.30092619 80.59971134 31.31719017 83.14278221 C31.44020399 103.18500063 31.31797804 121.34281843 16.8125 136.875 C6.56218407 146.32749101 -6.9900187 152.38077431 -21 153 C-21.91652344 153.0515625 -22.83304687 153.103125 -23.77734375 153.15625 C-45.75422004 153.80822161 -65.68261651 146.8669494 -82 132 C-79.84439673 127.17216676 -76.32819145 123.9981574 -72.625 120.3125 C-71.95210938 119.62349609 -71.27921875 118.93449219 -70.5859375 118.22460938 C-69.60367187 117.24137695 -69.60367187 117.24137695 -68.6015625 116.23828125 C-68.00682129 115.64055908 -67.41208008 115.04283691 -66.79931641 114.42700195 C-64.81853615 112.85608464 -63.50315774 112.28417337 -61 112 C-58.84375 113.29296875 -58.84375 113.29296875 -56.5 115.1875 C-45.41442014 123.23218785 -33.35130917 124.48620829 -20 123 C-16.29800691 122.13206861 -13.25710153 120.9447412 -10 119 C-9.071875 118.46375 -8.14375 117.9275 -7.1875 117.375 C-0.80290155 110.44315026 0.54997498 103.75080952 0.17578125 94.4921875 C0.11777344 93.66976562 0.05976563 92.84734375 0 92 C-0.49886719 92.38671875 -0.99773437 92.7734375 -1.51171875 93.171875 C-14.96590395 102.93038635 -30.99817559 104.05984676 -47.13085938 101.68652344 C-50.95793923 100.89812079 -54.44747854 99.603881 -58 98 C-59.42119141 97.36384766 -59.42119141 97.36384766 -60.87109375 96.71484375 C-74.97296234 89.6932476 -84.47833342 78.36203353 -89.5 63.4375 C-93.15400807 48.80515519 -92.49458855 32.40379721 -85.38671875 18.9453125 C-83.70373461 16.19133845 -81.92303213 13.59081032 -80 11 C-79.52691406 10.34386719 -79.05382812 9.68773437 -78.56640625 9.01171875 C-70.56236702 -1.21440502 -57.47065074 -7.63082743 -44.8046875 -9.71484375 C-28.52518266 -11.37000232 -13.74186956 -9.44753532 0 0 Z M-53.89453125 26.9609375 C-60.41376371 35.24083858 -60.87945189 43.70715561 -60 54 C-58.26254543 60.64928558 -54.5730011 66.88711954 -48.5625 70.44140625 C-38.89869459 75.37163255 -29.14276635 76.78970438 -18.5234375 74.12890625 C-10.79555631 71.14535718 -5.26573464 67.24825246 -1.34375 59.89453125 C0.50074812 55.35219133 0.47748057 50.90741764 0.4375 46.0625 C0.45748047 45.20720703 0.47746094 44.35191406 0.49804688 43.47070312 C0.49276443 36.54542343 -1.18889177 31.41983969 -5.60546875 26.046875 C-19.79795326 14.41254202 -40.48962439 13.08616793 -53.89453125 26.9609375 Z " fill="#000000" transform="translate(436,455)"/>
<path d="M0 0 C9.9 0 19.8 0 30 0 C30.33 23.43 30.66 46.86 31 71 C37.12430064 65.48812942 43.20843229 59.97494398 49.1875 54.3125 C50.65207358 52.92940135 52.11692334 51.54659511 53.58203125 50.1640625 C54.31244629 49.47473633 55.04286133 48.78541016 55.79541016 48.07519531 C59.93702115 44.1766689 64.10086881 40.30194004 68.26635742 36.42895508 C68.84619385 35.88907959 69.42603027 35.3492041 70.0234375 34.79296875 C70.52794434 34.3239917 71.03245117 33.85501465 71.55224609 33.37182617 C73.03296949 32.01637058 73.03296949 32.01637058 74.33970642 30.43554688 C76.39329778 28.65994123 77.33209227 28.63405766 80.01245117 28.65942383 C80.81305466 28.65965042 81.61365814 28.65987701 82.43852234 28.66011047 C83.29798965 28.67559433 84.15745697 28.69107819 85.04296875 28.70703125 C86.36836418 28.71339851 86.36836418 28.71339851 87.72053528 28.71989441 C90.54316661 28.73668957 93.36508441 28.77434303 96.1875 28.8125 C98.10090115 28.82754577 100.01431349 28.84123436 101.92773438 28.85351562 C106.61876459 28.88659581 111.30926131 28.9383837 116 29 C114.18835072 32.96817435 111.61281483 35.4101956 108.375 38.25 C107.28252506 39.22768354 106.19138204 40.20685737 105.1015625 41.1875 C104.30347168 41.90486328 104.30347168 41.90486328 103.48925781 42.63671875 C101.5121325 44.44659871 99.62633116 46.33629172 97.75 48.25 C95.27411452 50.76672483 92.74112595 53.13777596 90.0625 55.4375 C86.26061399 58.70369953 82.76292229 62.21291746 79.25390625 65.7890625 C76.45383243 68.53575536 73.48462488 71.02995185 70.43359375 73.4921875 C68.65547727 75.01560067 68.65547727 75.01560067 69 78 C70.10003564 79.82042809 70.10003564 79.82042809 71.640625 81.66796875 C72.21022949 82.38766846 72.77983398 83.10736816 73.36669922 83.84887695 C74.29893311 85.00649536 74.29893311 85.00649536 75.25 86.1875 C76.55064503 87.82980652 77.85010483 89.47305233 79.1484375 91.1171875 C79.80166992 91.94186523 80.45490234 92.76654297 81.12792969 93.61621094 C83.76535627 96.97456163 86.32673678 100.38627115 88.875 103.8125 C94.35348561 111.16276247 99.90758997 118.45388926 105.48193359 125.73168945 C116 139.49306755 116 139.49306755 116 142 C111.19921156 142.32427388 106.40491755 142.55843457 101.59570312 142.71411133 C99.96534171 142.7790358 98.33572419 142.86743041 96.70800781 142.98071289 C83.635009 143.86694993 83.635009 143.86694993 79.32891846 140.81600952 C75.82985691 137.34330909 73.45293239 133.2447061 71 129 C69.95738824 127.51247413 68.90023381 126.03488381 67.8203125 124.57421875 C66.91956812 123.28024862 66.02110273 121.98468889 65.125 120.6875 C59.27756995 112.30959749 53.17670042 104.13703619 47 96 C40.61144952 99.89153008 34.65455929 104.35715181 31 111 C28.66492708 121.23808927 29.64106851 131.54612037 30 142 C20.1 142 10.2 142 0 142 C0 95.14 0 48.28 0 0 Z " fill="#000000" transform="translate(801,416)"/>
<path d="M0 0 C10.7328812 9.02464485 16.62425099 20.36344243 19.3515625 34 C19.3515625 40.6 19.3515625 47.2 19.3515625 54 C-8.6984375 54.33 -36.7484375 54.66 -65.6484375 55 C-61.25290649 65.25623903 -57.68975322 68.78296566 -47.6484375 73 C-38.94845664 76.44716223 -28.79484375 76.0383374 -19.99609375 73.0625 C-16.62097012 71.5349898 -13.70569192 69.53098739 -10.75390625 67.3046875 C-8.28318937 65.77366813 -6.53924816 65.2960873 -3.6484375 65 C-1.53613281 65.92456055 -1.53613281 65.92456055 0.5234375 67.38671875 C1.64298828 68.1765918 1.64298828 68.1765918 2.78515625 68.98242188 C3.54957031 69.54509766 4.31398438 70.10777344 5.1015625 70.6875 C5.88144531 71.23083984 6.66132812 71.77417969 7.46484375 72.33398438 C13.16277206 76.43153803 13.16277206 76.43153803 14.07910156 79.19067383 C14.16901367 79.78775146 14.25892578 80.3848291 14.3515625 81 C1.83263233 94.00042749 -13.8577041 100.72793127 -31.91748047 101.34692383 C-51.04896764 101.59462942 -68.44674449 96.23963645 -82.6796875 83.12890625 C-93.15537449 72.07889432 -97.18946616 57.39174254 -97.06811523 42.50048828 C-96.5146784 26.55225398 -90.28889863 12.31749827 -78.640625 1.32421875 C-56.03713839 -16.2333198 -22.98556704 -17.35783234 0 0 Z M-60.6484375 21 C-64.15840737 25.34127852 -64.69019183 27.25052597 -65.6484375 33 C-47.4984375 33 -29.3484375 33 -10.6484375 33 C-11.73489854 25.39477275 -13.02543317 22.79885341 -18.6484375 18 C-31.5730795 10.44071359 -49.33705656 10.35045517 -60.6484375 21 Z " fill="#000000" transform="translate(764.6484375,457)"/>
<path d="M0 0 C0.88300781 0.48210937 1.76601563 0.96421875 2.67578125 1.4609375 C15.76158926 9.17124761 23.7328121 20.3898346 28.16796875 34.79296875 C31.52629641 49.38251115 29.52489344 65.16902939 22.3125 78.1875 C12.76560583 92.88971703 0.6791441 100.59350123 -16 105 C-34.89690794 108.35096684 -52.73836472 105.14075753 -69 95 C-80.34196335 86.89012555 -88.0563263 74.64070532 -91 61 C-91.87720869 49.22967434 -92.4251083 36.74912762 -87 26 C-86.56429688 25.13632812 -86.12859375 24.27265625 -85.6796875 23.3828125 C-77.59977881 8.85663787 -65.61492068 0.28759219 -50 -5 C-33.94419358 -9.56022904 -14.6669897 -8.04737488 0 0 Z M-54.43359375 29.52734375 C-59.41492293 35.80943544 -61.64784377 43.75007016 -61.26953125 51.72265625 C-60.12576376 61.38666277 -56.30001637 67.52818646 -49 74 C-41.20272188 79.26767987 -32.64244723 79.93715147 -23.48046875 78.64453125 C-16.06196016 76.90381034 -10.92665635 72.71023789 -6 67 C-1.62578689 59.86737809 0.25554905 51.81614632 -1.53125 43.5390625 C-3.99039259 34.63803552 -8.32851073 28.23777543 -16 23 C-28.84526344 17.03912612 -44.60231274 19.05314518 -54.43359375 29.52734375 Z " fill="#000000" transform="translate(575,452)"/>
<path d="M0 0 C10.23 0 20.46 0 31 0 C31.04528261 16.44734036 31.08206782 32.89462686 31.10362434 49.34201241 C31.1139029 56.98014699 31.12789717 64.61823986 31.15087891 72.25634766 C31.17091822 78.91974635 31.18374124 85.58311482 31.18817699 92.24654281 C31.19076667 95.76930035 31.19678068 99.29197146 31.21146011 102.81470108 C31.22777841 106.76336441 31.227973 110.71194597 31.22705078 114.66064453 C31.23424133 115.8072052 31.24143188 116.95376587 31.24884033 118.1350708 C31.2174847 130.63769858 30.81520724 143.77904506 22.50390625 153.8046875 C12.33277696 163.60994883 -2.35725502 163.15564665 -15.5 163.0625 C-19.625 163.041875 -23.75 163.02125 -28 163 C-28 153.76 -28 144.52 -28 135 C-18.375 134.6875 -18.375 134.6875 -15.37646484 134.61206055 C-10.27270882 134.40004885 -6.34912345 133.96275238 -2 131 C-0.99383234 127.98149702 -0.86342731 125.93704103 -0.84178162 122.77986145 C-0.8319928 121.69872574 -0.82220398 120.61759003 -0.81211853 119.50369263 C-0.80636307 118.31758392 -0.8006076 117.13147522 -0.79467773 115.90942383 C-0.78477814 114.66052872 -0.77487854 113.41163361 -0.76467896 112.12489319 C-0.7384828 108.69956533 -0.71662422 105.27426089 -0.69667697 101.84889436 C-0.67481228 98.26941051 -0.64742595 94.68996906 -0.62062073 91.11051941 C-0.57070038 84.33202637 -0.52575911 77.55350979 -0.48259836 70.77497071 C-0.43322037 63.05797045 -0.37830432 55.34101272 -0.32291877 47.6240536 C-0.20910881 31.74940686 -0.10299873 15.87472112 0 0 Z " fill="#000000" transform="translate(621,445)"/>
<path d="M0 0 C9.10355171 7.48514252 14.27709691 15.41961806 15.75 27.1875 C16.27791388 37.46862284 13.49826085 46.46465431 6.8125 54.3125 C0.35475662 61.05101484 -7.02826497 65.86575406 -16.47265625 66.55078125 C-28.07539009 66.77875637 -37.10149158 64.92517703 -46.18359375 57.2890625 C-53.73731565 49.83841283 -57.19989443 40.95543468 -57.625 30.4375 C-57.30365427 20.0071532 -53.76748346 10.59933493 -46.1875 3.3125 C-31.6092284 -7.89494886 -16.10980484 -8.52872021 0 0 Z " fill="#00AA13" transform="translate(223.1875,481.6875)"/>
</svg>
