<?xml version="1.0" encoding="UTF-8"?>
<svg version="1.1" xmlns="http://www.w3.org/2000/svg" width="5471" height="1280">
<path d="M0 0 C40.26 0 80.52 0 122 0 C128.27 14.19 134.54 28.38 141 43 C144.75478574 51.49125386 144.75478574 51.49125386 148.50976562 59.98242188 C155.73618116 76.32502417 162.93842214 92.67800317 170.11502075 109.0425415 C175.88774981 122.20491326 181.68626303 135.35569294 187.5 148.5 C194.06233942 163.3368261 200.59926729 178.18453154 207.11474609 193.04199219 C212.88757348 206.20454391 218.6861804 219.35550611 224.5 232.5 C231.06233942 247.3368261 237.59926729 262.18453154 244.11474609 277.04199219 C249.88757348 290.20454391 255.6861804 303.35550611 261.5 316.5 C268.06233942 331.3368261 274.59926729 346.18453154 281.11474609 361.04199219 C286.49118264 373.30073811 291.88826779 385.55017661 297.30252075 397.79226685 C339.15868218 492.43717714 339.15868218 492.43717714 353 527 C353.43828125 525.89269531 353.8765625 524.78539062 354.328125 523.64453125 C363.76745267 499.87565249 373.59329696 476.3136708 384.10089111 452.99682617 C385.40927388 450.09104581 386.71394298 447.18360159 388.0189209 444.27629089 C396.54280277 425.28786961 405.11156452 406.31979727 413.6958313 387.35861206 C419.48091806 374.58003489 425.24805961 361.79352952 431 349 C437.12950501 335.36758923 443.27515811 321.74259977 449.4375 308.125 C449.83015045 307.2571991 450.2228009 306.38939819 450.62734985 305.49530029 C454.62990385 296.64951537 458.63466804 287.80473717 462.64399719 278.96202087 C464.65935156 274.51673377 466.67368955 270.07098672 468.6875 265.625 C469.08345367 264.75092499 469.47940735 263.87684998 469.88735962 262.97628784 C475.6859906 250.17062574 481.41351625 237.33499991 487.10180664 224.48001099 C492.55256012 212.17023337 498.13868294 199.9262802 503.77645874 187.70117188 C509.73445226 174.78100785 515.59420979 161.82097768 521.39430237 148.82897949 C525.1216613 140.48287889 528.87378531 132.1478985 532.625 123.8125 C533.19311401 122.54999924 533.19311401 122.54999924 533.77270508 121.26199341 C543.66684963 99.27753255 553.61104705 77.31571329 563.55664062 55.35449219 C565.69139681 50.64065398 567.82559268 45.9265624 569.95950317 41.21234131 C571.14170931 38.60114031 572.3246199 35.9902593 573.50756836 33.37939453 C574.24865544 31.74256748 574.98962469 30.10568706 575.73046875 28.46875 C576.08515732 27.68539276 576.43984589 26.90203552 576.80528259 26.09494019 C578.6511665 22.01084025 580.48138191 17.92039879 582.29150391 13.8203125 C582.66052322 12.98504028 583.02954254 12.14976807 583.40974426 11.28918457 C584.11413429 9.69207688 584.8164474 8.09405114 585.5164032 6.49499512 C587.89050461 1.10949539 587.89050461 1.10949539 589 0 C627.28 0 665.56 0 705 0 C705 227.37 705 454.74 705 689 C672.33 689 639.66 689 606 689 C605.67 521.69 605.34 354.38 605 182 C593.97248085 206.37662128 582.95947749 230.74930366 572.12353516 255.20996094 C568.59538896 263.17104378 565.05604628 271.12715626 561.51852417 279.08407593 C559.39218134 283.86708123 557.26643463 288.65035145 555.140625 293.43359375 C554.28190387 295.36572391 553.42317991 297.29785282 552.56445312 299.22998047 C552.14010986 300.18475281 551.7157666 301.13952515 551.27856445 302.12322998 C547.48242193 310.66455065 547.48242193 310.66455065 546.23197937 313.4780426 C545.40011728 315.34973485 544.56825896 317.22142878 543.73640442 319.09312439 C541.6631441 323.75800451 539.58981861 328.42285564 537.51635742 333.08764648 C533.6998836 341.6739751 529.88397636 350.26055386 526.07034302 358.84814453 C518.07103805 376.86099863 510.06995534 394.87263267 501.99462891 412.8515625 C494.48494664 429.58486269 487.05682631 446.35461348 479.61279297 463.1171875 C475.41069498 472.57908764 471.20516534 482.03946281 467 491.5 C465.33720157 495.24086852 463.67443376 498.98175065 462.01171875 502.72265625 C461.59980286 503.64941666 461.18788696 504.57617706 460.76348877 505.53102112 C458.2324165 511.2259955 455.70234607 516.92141389 453.17300415 522.61715698 C444.62777873 541.85977342 436.07060642 561.09675941 427.4644165 580.31219482 C421.68414019 593.21951887 415.92936757 606.13804571 410.1875 619.0625 C409.77599701 619.98874176 409.36449402 620.91498352 408.94052124 621.86929321 C406.40413932 627.5787763 403.86840635 633.28854745 401.33288574 638.99841309 C397.60900667 647.38438822 393.8846591 655.77015496 390.15933228 664.15548706 C388.83329781 667.14067959 387.50782261 670.12612 386.18237305 673.11157227 C385.37811971 674.92204987 384.57384054 676.732516 383.76953125 678.54296875 C383.4007486 679.3740213 383.03196594 680.20507385 382.65200806 681.06130981 C380.11384338 686.77231323 380.11384338 686.77231323 379 689 C361.51 689 344.02 689 326 689 C318.06570473 672.01025905 310.28027577 654.98089057 302.69873047 637.83154297 C299.42567974 630.44024684 296.11574196 623.06533615 292.8125 615.6875 C292.08494133 614.06202049 291.35740238 612.43653216 290.62988281 610.81103516 C289.15524648 607.51637799 287.68045324 604.22179113 286.20556641 600.92724609 C282.98819308 593.74007067 279.77288492 586.55197143 276.5574646 579.36392212 C274.78839848 575.40924171 273.01919198 571.4546241 271.25 567.5 C270.541666 565.91666697 269.83333266 564.33333363 269.125 562.75 C268.774375 561.96625 268.42375 561.1825 268.0625 560.375 C261.33333333 545.33333333 254.60416667 530.29166667 247.875 515.25 C247.52439514 514.46629532 247.17379028 513.68259064 246.81256104 512.87513733 C246.10402336 511.29134663 245.39548658 509.70755553 244.68695068 508.12376404 C242.9192511 504.17242511 241.15153615 500.22109306 239.38378906 496.26977539 C236.15887112 489.06130754 232.93407906 481.85278348 229.70983887 474.64401245 C222.97833826 459.59371368 216.24627429 444.5436838 209.5 429.5 C202.38601751 413.63635459 195.28784831 397.76564408 188.18945312 381.89501953 C184.97957577 374.71845723 181.76900318 367.54220596 178.55847168 360.36593628 C176.78895156 356.41063741 175.01947819 352.45531763 173.25 348.5 C172.54166689 346.91666657 171.83333356 345.33333323 171.125 343.75 C132.87500001 258.25000001 132.87500001 258.25000001 131.81271362 255.87547302 C131.10367267 254.29056095 130.39462726 252.70565088 129.68557739 251.1207428 C127.92553414 247.18658043 126.16556603 243.25238449 124.40576172 239.31811523 C121.08971402 231.90487958 117.77287685 224.49199981 114.45355225 217.08023071 C112.88745581 213.58315359 111.32176407 210.08589534 109.75610352 206.58862305 C109.0103749 204.92316783 108.26444848 203.25780118 107.51831055 201.5925293 C106.48305837 199.28196307 105.44849145 196.97109112 104.4140625 194.66015625 C104.11170685 193.98582047 103.8093512 193.31148468 103.49783325 192.61671448 C103.06892288 191.65800697 103.06892288 191.65800697 102.63134766 190.67993164 C102.3872818 190.13502579 102.14321594 189.59011993 101.89175415 189.02870178 C100.57296348 186.02851055 99.29097134 183.01226646 98 180 C97.67 347.97 97.34 515.94 97 689 C64.99 689 32.98 689 0 689 C0 461.63 0 234.26 0 0 Z " fill="#7F7F7F" transform="translate(1413,314)"/>
<path d="M0 0 C162.36 0 324.72 0 492 0 C492 162.36 492 324.72 492 492 C329.64 492 167.28 492 0 492 C0 329.64 0 167.28 0 0 Z " fill="#D7A11F" transform="translate(660,660)"/>
<path d="M0 0 C162.36 0 324.72 0 492 0 C492 162.36 492 324.72 492 492 C329.64 492 167.28 492 0 492 C0 329.64 0 167.28 0 0 Z " fill="#009FB8" transform="translate(128,660)"/>
<path d="M0 0 C162.36 0 324.72 0 492 0 C492 161.04 492 322.08 492 488 C329.64 488 167.28 488 0 488 C0 326.96 0 165.92 0 0 Z " fill="#6AA40F" transform="translate(660,128)"/>
<path d="M0 0 C162.36 0 324.72 0 492 0 C492 161.04 492 322.08 492 488 C329.64 488 167.28 488 0 488 C0 326.96 0 165.92 0 0 Z " fill="#DC3E00" transform="translate(128,128)"/>
<path d="M0 0 C0 27.72 0 55.44 0 84 C-11.18687959 81.76262408 -11.18687959 81.76262408 -15.05078125 80.59765625 C-41.52224982 72.85637801 -70.84357571 67.41632289 -96.42651367 80.75732422 C-110.15210527 88.33158495 -118.74612011 100.67159781 -123.94140625 115.3046875 C-134.42572692 151.903091 -130.52729919 190.18393499 -131 228 C-66.32 228 -1.64 228 65 228 C65 190.38 65 152.76 65 114 C99.73314623 104.06573148 99.73314623 104.06573148 111.859375 100.60546875 C112.55110558 100.40807791 113.24283615 100.21068707 113.95552826 100.00731468 C116.75130173 99.20954221 119.54708229 98.41179464 122.34289932 97.61417484 C126.25421679 96.49829544 130.16528419 95.38154479 134.07617188 94.26416016 C137.97781827 93.14980365 141.88045841 92.03903548 145.78442383 90.93283081 C147.70793379 90.3869384 149.63034773 89.83718868 151.55273438 89.28735352 C152.66455078 88.97338623 153.77636719 88.65941895 154.921875 88.3359375 C155.84581055 88.07345215 156.76974609 87.8109668 157.72167969 87.54052734 C160 87 160 87 163 87 C163 133.53 163 180.06 163 228 C202.93 228 242.86 228 284 228 C284.0309375 248.7590625 284.0309375 248.7590625 284.0625 269.9375 C284.071604 274.31378662 284.08070801 278.69007324 284.09008789 283.19897461 C284.09460449 288.52648926 284.09460449 288.52648926 284.09544373 291.01734924 C284.09698335 292.76397455 284.10050865 294.51059877 284.10557556 296.25721741 C284.11285244 298.89667621 284.11390744 301.53606984 284.11352539 304.17553711 C284.11892255 305.35055361 284.11892255 305.35055361 284.12442875 306.54930782 C284.11402634 311.88597366 284.11402634 311.88597366 283 313 C281.44379604 313.09588124 279.88323546 313.12188033 278.32408142 313.12025452 C276.80747169 313.12231651 276.80747169 313.12231651 275.26022339 313.12442017 C274.14173004 313.12082489 273.02323669 313.11722961 271.87084961 313.11352539 C270.70027512 313.11367142 269.52970062 313.11381744 268.32365417 313.1139679 C265.10479057 313.11338895 261.88596996 313.10835991 258.66711497 313.10139394 C255.306526 313.09515957 251.94593627 313.09455654 248.58534241 313.09336853 C242.21757658 313.09025546 235.84982784 313.0820424 229.48206955 313.07201904 C222.23430271 313.06085715 214.98653507 313.05534726 207.73876178 313.05032361 C192.82583165 313.03985977 177.91291753 313.0222608 163 313 C163.08193416 347.58260335 163.17417218 382.16516257 163.28005161 416.7477008 C163.2925691 420.83904315 163.30500209 424.93038575 163.31738281 429.02172852 C163.3210818 430.24339534 163.3210818 430.24339534 163.32485552 431.4897423 C163.36447941 444.64274341 163.3972724 457.79575299 163.42749982 470.94877867 C163.45871545 484.46497404 163.49736728 497.98113372 163.54279006 511.49728888 C163.57054299 519.82410265 163.59263253 528.15089059 163.60726251 536.47773793 C163.61788 542.20318695 163.63578035 547.92858567 163.65916704 553.65399662 C163.67241219 556.94742679 163.68159049 560.24077511 163.68421364 563.53423309 C162.9439626 603.40716277 162.9439626 603.40716277 179.625 638.375 C191.2815344 649.03430237 207.64858874 652.20366715 223 652 C242.78295848 651.10827323 261.99340755 645.3914035 280.14453125 637.69921875 C282 637 282 637 284 637 C284 663.4 284 689.8 284 717 C265.47162862 726.26418569 265.47162862 726.26418569 258.375 728.3125 C257.57779541 728.55194336 256.78059082 728.79138672 255.95922852 729.03808594 C214.46577686 741.25159866 163.57015084 740.30624056 124.9375 719.375 C98.02220406 704.27292251 81.4867828 679.09498332 72.75244141 649.98364258 C71.73035297 646.3450873 70.83318116 642.686041 70 639 C69.84837402 638.33677734 69.69674805 637.67355469 69.54052734 636.99023438 C64.50559359 614.13807714 64.70573819 590.34243429 64.77294922 567.06982422 C64.77463888 564.27784621 64.77328087 561.48587149 64.77206421 558.69389343 C64.77102757 552.74276778 64.77717412 546.79168678 64.78853989 540.84057236 C64.8049609 532.23681349 64.81001963 523.63307569 64.81251587 515.02930285 C64.81686731 501.0621663 64.83010623 487.09505342 64.84912109 473.12792969 C64.86754659 459.57942825 64.88164722 446.03093333 64.89013672 432.48242188 C64.89067271 431.63543645 64.89120871 430.78845103 64.89176095 429.91579938 C64.89592105 423.28946538 64.89983446 416.66313124 64.90367007 410.03679705 C64.92245601 377.69117628 64.9627116 345.34561496 65 313 C0.32 313 -64.36 313 -131 313 C-131 449.29 -131 585.58 -131 726 C-163.01 726 -195.02 726 -228 726 C-228 589.71 -228 453.42 -228 313 C-255.06 313 -282.12 313 -310 313 C-310 284.95 -310 256.9 -310 228 C-282.94 228 -255.88 228 -228 228 C-228.03480469 221.90273438 -228.06960938 215.80546875 -228.10546875 209.5234375 C-228.12083421 205.61327141 -228.13527859 201.70314362 -228.14648438 197.79296875 C-228.16427634 191.61433993 -228.1851018 185.435847 -228.22631836 179.25732422 C-228.25940801 174.26463987 -228.27695508 169.27210166 -228.28463173 164.27931595 C-228.29008781 162.39395478 -228.30073527 160.50859972 -228.31719017 158.62330246 C-228.61621275 122.87411117 -220.88736676 85.67969849 -200 56 C-199.33484375 55.04996094 -198.6696875 54.09992188 -197.984375 53.12109375 C-190.25635627 42.46031971 -181.39598675 32.14676986 -171 24 C-170.49162598 23.60103516 -169.98325195 23.20207031 -169.45947266 22.79101562 C-157.01183277 13.11540334 -143.63911457 4.94323028 -129 -1 C-127.97132812 -1.41894531 -126.94265625 -1.83789062 -125.8828125 -2.26953125 C-87.1798516 -17.06246434 -37.80447706 -16.80198981 0 0 Z " fill="#7F7F7F" transform="translate(4925,277)"/>
<path d="M0 0 C50.97890191 46.44234671 72.85628731 112.09425633 76.9675293 179.61669922 C77.30817317 187.08328188 77.39298538 194.54587816 77.3984375 202.01953125 C77.39911224 202.86286011 77.39978699 203.70618896 77.40048218 204.57507324 C77.34753646 246.72778372 70.38575715 287.56279887 54.1484375 326.58203125 C53.69911865 327.66460205 53.69911865 327.66460205 53.24072266 328.76904297 C45.30944172 347.49701523 34.29511038 365.09192292 21.1484375 380.58203125 C20.17254872 381.75989634 19.19730496 382.93829609 18.22265625 384.1171875 C8.50142773 395.77063481 -1.87414988 406.23138912 -13.8515625 415.58203125 C-14.85832031 416.39414062 -15.86507812 417.20625 -16.90234375 418.04296875 C-24.79116431 424.34794284 -33.06175928 429.62631052 -41.8515625 434.58203125 C-42.49544922 434.95183105 -43.13933594 435.32163086 -43.80273438 435.70263672 C-103.90250131 470.02621521 -183.12915109 473.99347686 -249.13647461 456.23974609 C-286.63141938 445.55160293 -317.71639777 426.20572119 -345.8515625 399.58203125 C-346.5321875 398.94394531 -347.2128125 398.30585937 -347.9140625 397.6484375 C-353.04110199 392.69942021 -357.42389301 387.15302986 -361.8515625 381.58203125 C-363.0271875 380.14923828 -363.0271875 380.14923828 -364.2265625 378.6875 C-411.02223958 320.26789672 -421.59201912 239.89504625 -413.6015625 167.51953125 C-408.24091381 123.08980483 -395.36311478 79.169658 -368.8515625 42.58203125 C-368.44583008 42.02080566 -368.04009766 41.45958008 -367.62207031 40.88134766 C-361.5809183 32.61009551 -354.9371701 24.97483767 -347.8515625 17.58203125 C-347.02229248 16.70393799 -347.02229248 16.70393799 -346.17626953 15.80810547 C-336.8258789 5.94358617 -326.90474296 -2.51905322 -315.8515625 -10.41796875 C-314.94035645 -11.08022461 -314.94035645 -11.08022461 -314.01074219 -11.75585938 C-237.64049637 -66.90508847 -116.38954029 -69.55840287 0 0 Z M-211.9765625 34.83203125 C-212.71116699 35.04255127 -213.44577148 35.25307129 -214.20263672 35.4699707 C-234.46742452 41.51633588 -251.36492673 52.35929988 -266.8515625 66.58203125 C-268.06392578 67.65324219 -268.06392578 67.65324219 -269.30078125 68.74609375 C-302.37438289 99.50394949 -313.8736313 149.26472176 -315.8515625 192.58203125 C-317.02868114 231.1692937 -313.32091643 268.29055855 -296.8515625 303.58203125 C-296.36816406 304.64292969 -295.88476562 305.70382812 -295.38671875 306.796875 C-289.78498025 318.60552597 -282.28491775 328.53765496 -273.33203125 337.94140625 C-271.419486 339.97743868 -269.68720916 342.00836227 -267.9765625 344.20703125 C-249.68478512 365.74835074 -218.83474479 376.27403667 -191.8515625 380.58203125 C-190.2579187 380.84113281 -190.2579187 380.84113281 -188.63208008 381.10546875 C-184.6542671 381.60690181 -180.74415427 381.76050893 -176.7421875 381.78515625 C-175.98179169 381.79212524 -175.22139587 381.79909424 -174.43795776 381.80627441 C-171.992436 381.82360373 -169.54714313 381.82999571 -167.1015625 381.83203125 C-166.26864685 381.83303833 -165.4357312 381.83404541 -164.57757568 381.83508301 C-152.40629246 381.82510438 -140.74628358 381.37229949 -128.8515625 378.58203125 C-127.56636719 378.30359375 -126.28117187 378.02515625 -124.95703125 377.73828125 C-91.08130569 369.64439008 -64.69218391 347.94008401 -46.68896484 318.69335938 C-29.57033462 289.81781243 -22.8013614 253.68725356 -22.6484375 220.484375 C-22.64142319 219.46000336 -22.63440887 218.43563171 -22.62718201 217.38021851 C-22.60977786 214.09327752 -22.60333007 210.80651662 -22.6015625 207.51953125 C-22.60088776 206.39743256 -22.60021301 205.27533386 -22.59951782 204.11923218 C-22.61517155 187.75582413 -22.90630042 171.72494088 -25.8515625 155.58203125 C-26.02316895 154.61491211 -26.19477539 153.64779297 -26.37158203 152.65136719 C-30.83152311 128.29905262 -38.50158358 104.0031551 -52.8515625 83.58203125 C-53.84929687 82.13957031 -53.84929687 82.13957031 -54.8671875 80.66796875 C-71.62320255 57.34214924 -94.82935178 42.48334919 -122.1640625 34.39453125 C-122.99301025 34.14429199 -123.82195801 33.89405273 -124.67602539 33.63623047 C-137.55019667 29.97416694 -150.50625628 29.22920557 -163.80249023 29.26635742 C-166.15200421 29.26951504 -168.5002497 29.24594924 -170.84960938 29.22070312 C-184.80482485 29.16231234 -198.54463423 30.94860502 -211.9765625 34.83203125 Z " fill="#7F7F7F" transform="translate(4516.8515625,548.41796875)"/>
<path d="M0 0 C0.81164612 0.00060425 1.62329224 0.0012085 2.45953369 0.00183105 C63.57154958 0.12485021 122.31584168 17.3346471 167.0625 60.1875 C167.56136719 60.65913574 168.06023438 61.13077148 168.57421875 61.61669922 C207.4765044 98.53136809 226.95128542 150.20333154 235.0625 202.1875 C235.22911133 203.23502441 235.39572266 204.28254883 235.56738281 205.36181641 C240.75967513 239.77822191 240.86873422 277.84985757 235.0625 312.1875 C234.88557617 313.24630371 234.70865234 314.30510742 234.52636719 315.39599609 C229.68629975 343.40402016 221.62765181 371.11880669 208.0625 396.1875 C207.67835938 396.91420898 207.29421875 397.64091797 206.8984375 398.38964844 C199.06060193 413.21200683 189.96379149 426.43688227 179.0625 439.1875 C178.4025 439.95964844 177.7425 440.73179687 177.0625 441.52734375 C135.00846968 489.39566235 76.97700629 515.4697636 13.609375 519.875 C-44.6276299 523.10020858 -106.83757072 514.77305815 -154.9375 479.1875 C-155.45957031 478.80384277 -155.98164063 478.42018555 -156.51953125 478.02490234 C-164.02188924 472.48378724 -171.19556382 466.63959594 -177.9375 460.1875 C-178.58879883 459.56875 -179.24009766 458.95 -179.91113281 458.3125 C-194.79638345 444.08424437 -207.35948943 428.85631821 -217.9375 411.1875 C-218.3082666 410.57084473 -218.6790332 409.95418945 -219.06103516 409.31884766 C-237.27844479 378.72881298 -247.33706062 344.35320042 -251.9375 309.1875 C-252.04191406 308.44387207 -252.14632812 307.70024414 -252.25390625 306.93408203 C-261.62747542 237.86333579 -250.14643138 156.7999866 -208.9375 99.1875 C-208.26332031 98.23875 -207.58914062 97.29 -206.89453125 96.3125 C-194.59895238 79.47046846 -180.42932807 63.98328717 -163.9375 51.1875 C-163.03902344 50.47207031 -162.14054687 49.75664063 -161.21484375 49.01953125 C-115.32164114 13.35287447 -57.19409353 -0.07909245 0 0 Z M-110.5625 126 C-111.69774113 127.38751694 -112.82143302 128.78451383 -113.9375 130.1875 C-114.76636719 131.16847656 -115.59523438 132.14945313 -116.44921875 133.16015625 C-127.137826 146.01258702 -134.97464221 160.59785976 -140.9375 176.1875 C-141.36546875 177.30640625 -141.7934375 178.4253125 -142.234375 179.578125 C-161.68158448 234.07832936 -160.79104808 303.60980604 -136.85839844 356.57568359 C-129.53206103 371.97022426 -119.72290074 384.96289178 -107.9375 397.1875 C-107.33421875 397.84234375 -106.7309375 398.4971875 -106.109375 399.171875 C-84.59441079 421.9401381 -50.56722593 435.22902079 -19.5456543 436.39257812 C-15.57509121 436.49494032 -11.60649954 436.51388894 -7.63476562 436.50317383 C-5.20396665 436.50002136 -2.7743992 436.52354977 -0.34375 436.54882812 C37.03843905 436.69864472 70.46431761 423.48870338 97.0625 397.1875 C128.50250438 364.82617681 137.95204902 315.67090956 139.0625 272.1875 C139.08441406 271.3826416 139.10632812 270.5777832 139.12890625 269.74853516 C140.29332889 219.24170297 132.50514734 165.99399091 99.0625 126.1875 C98.47082031 125.44886719 97.87914063 124.71023438 97.26953125 123.94921875 C85.44572687 109.75561136 68.93334007 100.18334237 52.0625 93.1875 C50.86367187 92.66736328 50.86367187 92.66736328 49.640625 92.13671875 C36.14524256 86.70922799 20.20274421 84.0678269 5.69921875 83.984375 C4.9083638 83.97867493 4.11750885 83.97297485 3.3026886 83.96710205 C1.63108638 83.95769747 -0.04053401 83.95113625 -1.7121582 83.94726562 C-4.20494444 83.93767337 -6.69686379 83.90665507 -9.18945312 83.875 C-46.48543005 83.62964541 -85.26876884 97.73410379 -110.5625 126 Z " fill="#7F7F7F" transform="translate(3434.9375,493.8125)"/>
<path d="M0 0 C0.73910614 -0.00067474 1.47821228 -0.00134949 2.23971558 -0.00204468 C42.50554013 0.05568372 85.79990135 7.08745067 122.125 25.25 C122.125 55.94 122.125 86.63 122.125 118.25 C113.215 114.29 113.215 114.29 104.125 110.25 C69.02748846 95.30749508 32.68547959 84.87184929 -5.70092773 84.87939453 C-8.17566859 84.87502091 -10.64861842 84.83852137 -13.12304688 84.80078125 C-37.74521239 84.62914356 -62.03496828 90.9854046 -80.375 108.0625 C-89.51398642 117.72757939 -93.28057115 129.4274919 -93.1875 142.5 C-93.18186035 143.33337891 -93.1762207 144.16675781 -93.17041016 145.02539062 C-92.90227796 158.7346445 -88.56416165 171.06688587 -79.09375 181.22265625 C-65.43600261 193.70218247 -48.49742855 201.28111208 -31.5625 208.1875 C-30.0070667 208.82953598 -28.45189821 209.47221382 -26.89697266 210.11547852 C-18.41679534 213.61467593 -9.90937353 217.04323554 -1.38671875 220.4375 C111.50067679 265.44697724 111.50067679 265.44697724 135.59375 321.27734375 C147.89613871 351.87103528 147.4613719 388.53103823 136.125 419.25 C135.71765625 420.39339844 135.3103125 421.53679687 134.890625 422.71484375 C120.93330713 458.55230994 88.67750078 484.58167805 54.4375 499.875 C19.84675003 514.75283402 -17.83572554 520.47162526 -55.3125 520.5 C-56.52495392 520.50101212 -56.52495392 520.50101212 -57.76190186 520.50204468 C-106.59710177 520.43789039 -150.8032259 508.81682791 -194.875 488.25 C-194.875 456.24 -194.875 424.23 -194.875 391.25 C-191.33626772 392.13468307 -189.12926058 393.08138631 -186.0078125 394.83984375 C-185.05092529 395.37206543 -184.09403809 395.90428711 -183.1081543 396.45263672 C-182.08246338 397.0251416 -181.05677246 397.59764648 -180 398.1875 C-152.21403328 413.44196424 -122.96787319 424.85683896 -91.9375 431.5625 C-91.26654297 431.70969482 -90.59558594 431.85688965 -89.90429688 432.00854492 C-75.9225719 434.84505584 -61.92131058 435.60058154 -47.69189453 435.56567383 C-45.00902698 435.56251064 -42.32726412 435.5861025 -39.64453125 435.61132812 C-15.14567105 435.70125019 12.68701627 432.09318225 31.1953125 414.3984375 C41.49291229 402.93349846 44.03065477 389.01109881 43.5078125 374.0703125 C42.6196978 359.7990354 35.73482029 347.13653081 25.20703125 337.609375 C3.36066819 319.8025154 -23.51001404 310.5540707 -49.39541626 300.26052856 C-63.70321197 294.56711505 -77.88650759 288.69748326 -91.875 282.25 C-92.98117676 281.74404297 -94.08735352 281.23808594 -95.22705078 280.71679688 C-126.1011214 266.51964078 -158.03509428 248.4245931 -175.875 218.25 C-176.25881836 217.60305176 -176.64263672 216.95610352 -177.03808594 216.28955078 C-188.0569905 197.37510511 -193.01636417 177.08016545 -193.875 155.25 C-193.92785156 154.05503906 -193.98070313 152.86007812 -194.03515625 151.62890625 C-194.8508497 116.41222809 -182.62438949 84.88578324 -158.6875 59.1875 C-156.44627808 56.84440435 -154.17351155 54.53682544 -151.875 52.25 C-151.10800781 51.48300781 -150.34101563 50.71601562 -149.55078125 49.92578125 C-116.94429274 19.30673585 -70.19008313 6.03702066 -26.875 1.25 C-26.04000977 1.15428711 -25.20501953 1.05857422 -24.34472656 0.95996094 C-16.24188771 0.11798997 -8.13891361 0.00674366 0 0 Z " fill="#7F7F7F" transform="translate(3919.875,493.75)"/>
<path d="M0 0 C0 31.02 0 62.04 0 94 C-5.28 91.36 -10.56 88.72 -16 86 C-38.85089794 74.97245224 -62.1564888 66.30938797 -87 61 C-87.79519043 60.82210937 -88.59038086 60.64421875 -89.40966797 60.4609375 C-111.7910944 55.61651451 -138.75014136 55.48467487 -161 61 C-161.96873047 61.22478027 -161.96873047 61.22478027 -162.95703125 61.45410156 C-189.79337772 67.68680333 -211.2653856 81.19308115 -231 100 C-231.71929688 100.66644531 -232.43859375 101.33289063 -233.1796875 102.01953125 C-266.80288531 134.08985045 -279.7250582 183.99455444 -281 229 C-281.03287109 230.0199707 -281.03287109 230.0199707 -281.06640625 231.06054688 C-282.27066869 273.81186365 -274.70397274 320.93683192 -247 355 C-246.28199219 355.9178125 -245.56398438 356.835625 -244.82421875 357.78125 C-221.15452595 387.54210727 -187.47706675 403.20324083 -150.12971497 407.78337097 C-129.63961631 409.86757014 -108.0020047 408.67495006 -88 404 C-87.09749512 403.79632812 -86.19499023 403.59265625 -85.26513672 403.3828125 C-56.90177795 396.82691577 -29.21850979 384.21784808 -4.28125 369.328125 C-2 368 -2 368 -1 368 C-1 397.04 -1 426.08 -1 456 C-70.47158367 492.12522351 -148.01451539 505.06391632 -224 481.64453125 C-253.19772473 472.22792446 -279.12374465 457.35891317 -302 437 C-302.50869629 436.55301758 -303.01739258 436.10603516 -303.54150391 435.64550781 C-324.613281 417.09165781 -340.91739262 394.77537657 -354 370 C-354.33209473 369.38060547 -354.66418945 368.76121094 -355.00634766 368.12304688 C-372.48254948 335.06512955 -381.03451815 294.9567282 -381.203125 257.75390625 C-381.21013931 256.71289764 -381.21715363 255.67188904 -381.22438049 254.59933472 C-381.24180076 251.25367868 -381.24823386 247.90819974 -381.25 244.5625 C-381.25067474 243.4189505 -381.25134949 242.275401 -381.25204468 241.09719849 C-381.23589799 223.88074996 -380.7916992 207.02527971 -378 190 C-377.82839355 188.92186035 -377.65678711 187.8437207 -377.47998047 186.73291016 C-370.23007282 142.43655752 -353.6907075 100.50770148 -326 65 C-325.22011719 63.99453125 -324.44023437 62.9890625 -323.63671875 61.953125 C-304.80703398 38.76888793 -282.59788741 20.22298607 -257 5 C-256.37480469 4.62536621 -255.74960938 4.25073242 -255.10546875 3.86474609 C-179.43193644 -40.83045827 -77.62952847 -35.2861493 0 0 Z " fill="#7F7F7F" transform="translate(2812,521)"/>
<path d="M0 0 C1.97395752 0.00845947 1.97395752 0.00845947 3.98779297 0.01708984 C45.59502346 0.53252346 45.59502346 0.53252346 55.375 10.3125 C55.47025367 13.23444665 55.50052736 16.13270329 55.48852539 19.05493164 C55.48867142 19.9719133 55.48881744 20.88889496 55.4889679 21.83366394 C55.4882684 24.88001836 55.48047428 27.92631245 55.47265625 30.97265625 C55.4707922 33.07872993 55.46936824 35.18480403 55.46836853 37.2908783 C55.46454231 42.84592883 55.45471114 48.40095341 55.44366455 53.95599365 C55.43345267 59.6197474 55.42887139 65.28350533 55.42382812 70.94726562 C55.41308896 82.06902185 55.3960113 93.19075877 55.375 104.3125 C51.49848736 103.69705658 47.96948655 102.94307853 44.27734375 101.60546875 C13.53777767 90.74386168 -18.90938026 84.68848223 -49.65234375 98.69140625 C-56.30123478 102.11376671 -61.92619926 106.50839153 -67.625 111.3125 C-68.47835937 111.98023438 -69.33171875 112.64796875 -70.2109375 113.3359375 C-81.62396383 122.68058365 -89.85971374 136.3759867 -96.625 149.3125 C-96.93179688 149.89870117 -97.23859375 150.48490234 -97.5546875 151.08886719 C-114.30153187 183.67006761 -117.08861295 220.66618709 -117.04150391 256.67602539 C-117.04725867 259.40727845 -117.05748185 262.13851074 -117.06752014 264.86975098 C-117.08667924 270.6899075 -117.09546796 276.50999999 -117.09682083 282.33018684 C-117.09888081 290.74572825 -117.1184799 299.16116242 -117.14221875 307.57666736 C-117.18039119 321.23982093 -117.20634327 334.90296713 -117.22363281 348.56616211 C-117.24044058 361.81682357 -117.26067018 375.06746918 -117.28710938 388.31811523 C-117.28955951 389.54811758 -117.28955951 389.54811758 -117.29205914 390.80296845 C-117.3100139 399.74919283 -117.32934724 408.69541341 -117.35036278 417.64163113 C-117.3522042 418.42658072 -117.35404562 419.21153031 -117.35594284 420.02026625 C-117.36332029 423.15672771 -117.3707141 426.29318912 -117.37828664 429.42965012 C-117.40041447 438.60816862 -117.41822285 447.78667133 -117.42823945 456.96521144 C-117.43460218 462.70193919 -117.44413659 468.43865535 -117.45620801 474.17537392 C-117.4630112 477.4869943 -117.46752138 480.7985922 -117.46879387 484.11021996 C-117.47035333 487.69057536 -117.47789872 491.27086852 -117.48696899 494.85121155 C-117.48536662 496.43692863 -117.48536662 496.43692863 -117.48373187 498.05468041 C-117.48916839 499.48096659 -117.48916839 499.48096659 -117.49471474 500.93606663 C-117.49574656 501.76305327 -117.49677839 502.59003991 -117.49784148 503.44208676 C-117.625 505.3125 -117.625 505.3125 -118.625 506.3125 C-150.635 506.3125 -182.645 506.3125 -215.625 506.3125 C-215.625 341.9725 -215.625 177.6325 -215.625 8.3125 C-183.615 8.3125 -151.605 8.3125 -118.625 8.3125 C-116.88199027 10.05550973 -117.45493914 12.46945189 -117.41967773 14.84204102 C-117.3897599 16.61376427 -117.3897599 16.61376427 -117.35923767 18.42127991 C-117.34252518 19.7066716 -117.32581268 20.99206329 -117.30859375 22.31640625 C-117.28781265 23.62455795 -117.26703156 24.93270966 -117.24562073 26.28050232 C-117.190337 29.76405447 -117.14095569 33.2476666 -117.09277344 36.73132324 C-117.04260426 40.2838273 -116.98689433 43.8362439 -116.93164062 47.38867188 C-116.82398209 54.36320546 -116.72255433 61.33781798 -116.625 68.3125 C-115.92352089 67.19230721 -115.92352089 67.19230721 -115.20787048 66.04948425 C-114.58747391 65.06531021 -113.96707733 64.08113617 -113.32788086 63.06713867 C-112.71585312 62.09346848 -112.10382538 61.11979828 -111.47325134 60.11662292 C-108.98922078 56.34791091 -106.19509481 52.98108301 -103.1875 49.625 C-102.61894287 48.98272461 -102.05038574 48.34044922 -101.46459961 47.67871094 C-99.86218715 45.87984722 -98.24715601 44.09355454 -96.625 42.3125 C-95.573125 41.15041016 -95.573125 41.15041016 -94.5 39.96484375 C-78.52598692 23.19901537 -57.98363485 11.16621788 -35.9375 4.5 C-34.97783325 4.20754395 -34.97783325 4.20754395 -33.9987793 3.90917969 C-22.82422579 0.73285592 -11.56931787 -0.05229577 0 0 Z " fill="#7F7F7F" transform="translate(3116.625,496.6875)"/>
<path d="M0 0 C32.34 0 64.68 0 98 0 C98 164.34 98 328.68 98 498 C65.66 498 33.32 498 0 498 C0 333.66 0 169.32 0 0 Z " fill="#7F7F7F" transform="translate(2251,505)"/>
<path d="M0 0 C12.2843079 13.014318 17.55526803 28.4314118 17.0625 46.08203125 C16.15964213 62.2018061 8.78298807 74.00182954 -2.25 85.25 C-2.79140625 85.81589844 -3.3328125 86.38179688 -3.890625 86.96484375 C-14.99844562 97.53971338 -31.13502228 101.78575445 -46.08618164 101.67211914 C-63.26262343 101.04479131 -77.13671857 94.34191762 -89.25 82.25 C-90.11431641 81.40308594 -90.11431641 81.40308594 -90.99609375 80.5390625 C-101.11889878 69.75893246 -104.78346778 54.85033268 -104.671875 40.41650391 C-104.04377293 23.1726228 -97.22508118 10.45863773 -85.25 -1.75 C-84.70859375 -2.31589844 -84.1671875 -2.88179688 -83.609375 -3.46484375 C-76.52906432 -10.20544256 -65.84138043 -15.17764255 -56.25 -16.75 C-55.49332031 -16.88148438 -54.73664062 -17.01296875 -53.95703125 -17.1484375 C-34.15099208 -19.84517506 -14.5904711 -13.72065456 0 0 Z " fill="#7F7F7F" transform="translate(2345.25,325.75)"/>
<path d="M0 0 C9.64468322 9.32794485 15.91997763 21.54377933 16.765625 34.9765625 C16.98759667 51.06950822 12.93020502 63.76428983 1.85351562 75.55273438 C-8.31513663 85.93860751 -20.55755722 90.79993182 -35.0625 91 C-50.5393767 90.85337696 -62.69554455 85.47430439 -73.6640625 74.71875 C-84.46625798 63.54254775 -87.80796659 50.58137254 -87.6484375 35.41015625 C-86.80657326 20.80225276 -80.10675358 8.59595684 -69.4375 -1.25 C-48.3118786 -17.58714722 -20.46610566 -17.32465175 0 0 Z M-68.546875 10.26953125 C-76.82888726 21.13539445 -79.42694517 32.28797142 -78.4375 45.75 C-76.84279533 53.96956348 -74.10236367 60.5674595 -68.4375 66.75 C-67.65375 67.61625 -66.87 68.4825 -66.0625 69.375 C-55.69040849 78.75927327 -45.48140005 82.75693141 -31.34375 82.1328125 C-17.85487832 80.81090308 -9.1591091 74.28634959 -0.375 64.4375 C6.909216 54.33358748 8.43533074 44.02504822 7.5625 31.75 C5.72742849 20.80125402 -0.62107879 10.4699179 -9.4375 3.75 C-29.58813909 -8.0254584 -51.83269358 -7.29394801 -68.546875 10.26953125 Z " fill="#7F7F7F" transform="translate(5326.4375,519.25)"/>
<path d="M0 0 C32.91006098 0 32.91006098 0 40.66015625 7.4765625 C44.37323788 11.69843374 44.3865068 16.16224482 44.2421875 21.57421875 C43.70905622 26.91413042 41.35510177 29.85474513 37.4375 33.25 C36.29166667 34.16666667 35.14583333 35.08333333 34 36 C33.34 36.66 32.68 37.32 32 38 C32.37656738 38.45640869 32.75313477 38.91281738 33.14111328 39.38305664 C37.36670228 44.72445072 40.19528588 50.19850572 42.875 56.4375 C43.2771875 57.34693359 43.679375 58.25636719 44.09375 59.19335938 C47 65.81150351 47 65.81150351 47 67 C42.38 67 37.76 67 33 67 C32.48050781 65.78183594 31.96101563 64.56367187 31.42578125 63.30859375 C30.72178497 61.684709 30.01733358 60.0610215 29.3125 58.4375 C28.97283203 57.63763672 28.63316406 56.83777344 28.28320312 56.01367188 C26.01934219 50.83006506 23.80105794 46.22521033 20 42 C17.36 41.34 14.72 40.68 12 40 C12 48.91 12 57.82 12 67 C8.04 67 4.08 67 0 67 C0 44.89 0 22.78 0 0 Z M12 11 C12 17.27 12 23.54 12 30 C14.5678125 30.061875 14.5678125 30.061875 17.1875 30.125 C18.63189453 30.15980469 18.63189453 30.15980469 20.10546875 30.1953125 C23.83953947 29.94335091 26.66165598 28.90816202 29.75 26.8125 C31.73603759 23.93274549 31.88090948 21.45362522 32 18 C30.41161066 14.42612398 29.28365642 13.18910428 26 11 C22.56692835 10.75729175 22.56692835 10.75729175 18.8125 10.875 C16.564375 10.91625 14.31625 10.9575 12 11 Z " fill="#7F7F7F" transform="translate(5270,524)"/>
</svg>
