<?xml version="1.0" encoding="UTF-8"?>
<svg version="1.1" xmlns="http://www.w3.org/2000/svg" width="1280" height="1280">
<path d="M0 0 C11.10607435 11.61459424 18.55788399 25.42714721 22.3503418 40.96166992 C22.53387962 41.70500328 22.71741745 42.44833664 22.90651703 43.21419525 C23.35652806 45.03809285 23.80356172 46.86272461 24.25 48.6875 C25.22861496 48.67639694 26.20722992 48.66529388 27.21549988 48.65385437 C36.44086133 48.55246823 45.66610967 48.47752988 54.89190197 48.42843914 C59.63495807 48.40235234 64.3775642 48.36697125 69.12036133 48.31030273 C73.6980309 48.25594991 78.27526787 48.22607256 82.85323524 48.21311378 C84.59918338 48.20387973 86.345108 48.18584739 88.09087181 48.15884972 C90.53790699 48.12251437 92.98315809 48.11755629 95.43041992 48.11987305 C96.15115189 48.10189667 96.87188385 48.08392029 97.61445618 48.06539917 C101.48894223 48.10505213 103.11573808 48.5797694 106.17622375 51.03547668 C109.65911019 55.48952328 109.39420588 59.51383363 109.38371277 64.9264679 C109.38597833 65.77669924 109.38824388 66.62693059 109.39057809 67.50292653 C109.39692764 70.36304867 109.39608809 73.22312353 109.39526367 76.08325195 C109.39825477 78.12991904 109.40165718 80.17658557 109.40544128 82.22325134 C109.4142955 87.79408699 109.41662013 93.36490729 109.41725707 98.93574929 C109.41796735 102.41890577 109.42010135 105.90205834 109.42275429 109.38521385 C109.43201591 121.54563012 109.43608859 133.7060354 109.43530273 145.86645508 C109.43470332 157.18440094 109.44522615 168.50229893 109.4610464 179.82023269 C109.47415333 189.54527456 109.47948523 199.27030086 109.47884732 208.99535149 C109.47859305 214.79952848 109.48140466 220.60366303 109.49202538 226.40783119 C109.50175818 231.87677045 109.5017502 237.34562719 109.49450874 242.81456947 C109.49346897 244.81310141 109.49578938 246.81163863 109.5018692 248.81016159 C109.54079169 262.50082698 109.12075242 275.84071401 105.125 289.0625 C104.91762207 289.76093018 104.71024414 290.45936035 104.49658203 291.17895508 C101.99693117 299.13198413 98.1715221 306.36130913 94.25 313.6875 C93.24368733 315.68433119 92.2413701 317.68320827 91.25 319.6875 C91.96430176 319.89318604 92.67860352 320.09887207 93.41455078 320.31079102 C133.49984698 331.95793645 133.49984698 331.95793645 140.4296875 343.68359375 C141.72203095 346.84060418 141.59900906 349.31374575 141.25 352.6875 C135.84044825 363.97699931 123.08469898 368.63681088 112.05175781 372.70996094 C81.87120109 383.24001924 49.21937094 387.42133587 17.51519775 390.46746826 C15.27275675 390.68528951 13.03169842 390.91453863 10.79052734 391.14501953 C-45.24916422 396.77427984 -104.48561104 396.69395675 -160.50769043 390.9185791 C-162.79255836 390.68311419 -165.07826372 390.45764323 -167.36425781 390.23339844 C-265.13159108 380.50726126 -265.13159108 380.50726126 -286.75 356.6875 C-289.0679589 353.07148412 -289.05150824 349.90573769 -288.3359375 345.66796875 C-286.46737255 339.35221922 -281.08053458 336.25115375 -275.6640625 333.19140625 C-265.65728534 328.02705075 -251.35455399 320.6875 -239.75 320.6875 C-239.75151888 320.13116233 -239.75303776 319.57482466 -239.75460267 319.00162828 C-239.84410128 286.03369766 -239.91273928 253.06579748 -239.95426132 220.09777262 C-239.95926419 216.13988857 -239.96444147 212.18200477 -239.96972656 208.22412109 C-239.9707758 207.43617266 -239.97182505 206.64822422 -239.97290608 205.83639856 C-239.99031467 193.07549047 -240.02185485 180.31465441 -240.05861118 167.55378906 C-240.096008 154.46144091 -240.11823318 141.3691305 -240.12635398 128.27673113 C-240.13184438 120.19699948 -240.14918962 112.11747141 -240.18166587 104.03780241 C-240.20529524 97.84387182 -240.20782302 91.65009667 -240.20243073 85.45612717 C-240.20353307 82.91401922 -240.21151481 80.37190371 -240.2268219 77.82984161 C-240.24667477 74.36343813 -240.24195544 70.89791111 -240.23101807 67.43148804 C-240.24266943 66.42175474 -240.2543208 65.41202143 -240.26632524 64.37169015 C-240.21616583 58.50460104 -239.66266177 55.15530443 -235.75 50.6875 C-231.79184544 48.3459917 -228.05939188 48.43952311 -223.52880859 48.44458008 C-222.82088669 48.44268173 -222.11296478 48.44078339 -221.3835907 48.43882751 C-219.05509188 48.43513752 -216.72690836 48.44579708 -214.3984375 48.45703125 C-212.7760929 48.45822401 -211.1537476 48.45867601 -209.53140259 48.4584198 C-206.1371018 48.45998151 -202.74290696 48.46824851 -199.34863281 48.48168945 C-194.99618885 48.49870591 -190.6438609 48.50250282 -186.29138756 48.50174427 C-182.94398897 48.50201602 -179.59661577 48.50749764 -176.24922562 48.51474571 C-174.64404111 48.51792878 -173.03885372 48.51989895 -171.43366623 48.52063942 C-169.19319491 48.52280527 -166.95284715 48.53155404 -164.71240234 48.54223633 C-163.43730804 48.54604813 -162.16221375 48.54985992 -160.84848022 48.55378723 C-157.75 48.6875 -157.75 48.6875 -154.75 49.6875 C-154.63785156 48.77484375 -154.63785156 48.77484375 -154.5234375 47.84375 C-151.63348702 28.57741348 -142.42243366 12.3831861 -128.75 -1.3125 C-127.61304688 -2.46685547 -127.61304688 -2.46685547 -126.453125 -3.64453125 C-90.37781896 -38.24617282 -34.59887775 -32.57066767 0 0 Z M-114 23.4375 C-120.16110142 31.53174053 -125.75 41.30286677 -125.75 51.6875 C-121.68574077 52.74034543 -117.64236144 53.7372412 -113.515625 54.51171875 C-99.59310804 57.14421146 -85.52723436 60.76050366 -73.0625 67.6875 C-68.33824766 70.18177309 -64.83786335 70.24835299 -59.75 68.6875 C-57.167216 67.5799672 -54.65006611 66.36185656 -52.1171875 65.14453125 C-37.12942607 58.6591078 -20.69725953 55.76380977 -4.75 52.6875 C-6.23011418 38.02807124 -13.47357778 24.37637489 -24.7578125 14.82421875 C-52.44145629 -4.9446496 -91.34546839 -3.39476842 -114 23.4375 Z " fill="#449846" transform="translate(707.75,311.3125)"/>
<path d="M0 0 C13.58244188 14.20434855 20.50472016 30.68194953 24.25 49.6875 C19.97948913 50.19028011 15.7085415 50.68924923 11.4375 51.1875 C10.22255859 51.33058594 9.00761719 51.47367187 7.75585938 51.62109375 C6.59248047 51.75644531 5.42910156 51.89179688 4.23046875 52.03125 C2.62014771 52.21977539 2.62014771 52.21977539 0.97729492 52.41210938 C-1.75 52.6875 -1.75 52.6875 -4.75 52.6875 C-5.09611328 51.34558594 -5.09611328 51.34558594 -5.44921875 49.9765625 C-10.0439261 32.9416396 -17.36391047 20.14287464 -32.75 10.6875 C-48.68014854 1.80915887 -66.75014971 0.20380147 -84.20874023 4.92114258 C-99.33487716 9.37779871 -110.38796847 18.33469076 -118.75 31.6875 C-122.03665014 38.16460564 -124.0675541 44.65593236 -125.75 51.6875 C-124.61046875 51.83445312 -123.4709375 51.98140625 -122.296875 52.1328125 C-106.14811147 54.36117974 -90.83239499 58.40321242 -76.03637695 65.32714844 C-71.98021842 67.22444579 -68.06607579 68.56012553 -63.75 69.6875 C-64.08 70.6775 -64.41 71.6675 -64.75 72.6875 C-64.84922339 74.05798743 -64.89602809 75.43266585 -64.90821838 76.8066864 C-64.9180072 77.64381165 -64.92779602 78.48093689 -64.93788147 79.34342957 C-64.94363693 80.25836685 -64.9493924 81.17330414 -64.95532227 82.1159668 C-64.96522186 83.08200836 -64.97512146 84.04804993 -64.98532104 85.04336548 C-65.0169453 88.24112485 -65.04169722 91.43889908 -65.06640625 94.63671875 C-65.08697497 96.85203948 -65.10797142 99.06735628 -65.12937927 101.28266907 C-65.18460837 107.11712461 -65.234014 112.95161563 -65.28222656 118.78613281 C-65.33243543 124.73831341 -65.38812471 130.69044242 -65.44335938 136.64257812 C-65.55095122 148.32417469 -65.65239396 160.00581603 -65.75 171.6875 C-65.4917041 170.61516113 -65.2334082 169.54282227 -64.96728516 168.43798828 C-64.61642793 167.00287662 -64.26534144 165.56782099 -63.9140625 164.1328125 C-63.74527588 163.42938721 -63.57648926 162.72596191 -63.40258789 162.0012207 C-58.25217382 141.0738942 -45.85634522 124.17080674 -27.609375 112.77636719 C-9.37751566 102.09962183 11.65118972 98.53779743 32.25 103.6875 C33.01828125 103.85894531 33.7865625 104.03039062 34.578125 104.20703125 C55.53871913 109.58599166 71.70430357 123.27676487 82.9375 141.4375 C93.01588523 159.38530932 96.39906675 180.6136021 91.25 200.6875 C84.79795504 222.01205537 72.0433615 239.97005654 52.390625 251.078125 C31.30574824 261.88281309 9.76799189 263.6305475 -12.75 256.6875 C-15.88331912 255.50451217 -18.76159047 254.20887213 -21.75 252.6875 C-22.08 253.6775 -22.41 254.6675 -22.75 255.6875 C-25.97791555 257.8394437 -27.03400809 257.88836443 -30.75 257.6875 C-29.6524777 254.69425737 -29.07317108 253.84139099 -26.125 252.4375 C-25.34125 252.19 -24.5575 251.9425 -23.75 251.6875 C-23.89230808 250.27047487 -24.03900746 248.8538904 -24.1875 247.4375 C-24.30931641 246.25414062 -24.30931641 246.25414062 -24.43359375 245.046875 C-24.72665065 242.86161119 -25.19756275 240.81861026 -25.75 238.6875 C-24.66203125 239.23019531 -23.5740625 239.77289062 -22.453125 240.33203125 C-4.16155059 249.31472486 15.01986987 253.78607674 34.98828125 247.00390625 C50.34030168 240.80794112 62.5607042 233.11501 71.25 218.6875 C71.69730469 218.0171875 72.14460938 217.346875 72.60546875 216.65625 C82.32892666 201.09871734 83.9444262 180.79909308 80.1875 163.125 C74.36295031 144.42656244 62.37366121 129.75818063 45.3125 120.2265625 C29.50037101 112.28016094 8.83745808 110.35090359 -8.125 115.8125 C-10.35700748 116.71432121 -12.56888297 117.66874223 -14.75 118.6875 C-15.71550781 119.1103125 -16.68101562 119.533125 -17.67578125 119.96875 C-33.88323759 127.85469764 -45.58275967 143.04939992 -51.75 159.6875 C-57.33484843 178.27556156 -55.56796197 196.47707296 -46.53125 213.49755859 C-46.18835938 214.13258301 -45.84546875 214.76760742 -45.4921875 215.421875 C-43.75 218.6875 -43.75 218.6875 -42.75 221.6875 C-43.29527344 221.49414062 -43.84054687 221.30078125 -44.40234375 221.1015625 C-46.84089896 220.25953147 -49.2896885 219.46364727 -51.75 218.6875 C-52.45769531 218.46320313 -53.16539062 218.23890625 -53.89453125 218.0078125 C-64.55944398 215.11898642 -74.25199256 217.38607474 -84.16796875 221.7265625 C-85.02003906 222.04367187 -85.87210938 222.36078125 -86.75 222.6875 C-87.41 222.3575 -88.07 222.0275 -88.75 221.6875 C-88.20730469 220.63691406 -87.66460938 219.58632813 -87.10546875 218.50390625 C-79.25064726 203.1527138 -76.41797125 190.97483913 -76.75 173.6875 C-76.75773437 172.40939453 -76.75773437 172.40939453 -76.765625 171.10546875 C-77.58077262 155.87967567 -88.11304443 139.87963743 -98.75 129.6875 C-113.10916889 117.6721817 -131.21670545 112.08502448 -149.75 112.6875 C-150.45898438 112.70425781 -151.16796875 112.72101563 -151.8984375 112.73828125 C-167.09959261 113.72720398 -182.90472644 122.26340211 -193.75 132.6875 C-207.75295837 148.68440713 -214.34834483 167.25182399 -212.96875 188.37255859 C-211.14120957 207.71266837 -201.5629391 223.42066617 -187.09375 235.99609375 C-171.65921924 248.00325077 -154.72905162 250.96312777 -135.75 249.6875 C-123.7456533 248.06323322 -112.75489403 243.42156329 -102.75 236.6875 C-103.03875 237.491875 -103.3275 238.29625 -103.625 239.125 C-104.93357179 243.26881067 -105.86217765 247.43728663 -106.75 251.6875 C-105.5434375 252.05875 -105.5434375 252.05875 -104.3125 252.4375 C-103.466875 252.85 -102.62125 253.2625 -101.75 253.6875 C-101.08984375 255.765625 -101.08984375 255.765625 -100.75 257.6875 C-101.719375 257.96722656 -102.68875 258.24695313 -103.6875 258.53515625 C-142.10824334 269.90115163 -173.50130457 293.74087398 -192.91015625 329.10546875 C-198.65324164 340.13255753 -202.72182728 351.17179515 -205.8046875 363.21484375 C-206.75 366.6875 -206.75 366.6875 -207.75 367.6875 C-211.6368862 368.02497006 -215.53785709 368.01264983 -219.4375 368.0625 C-220.52740234 368.09988281 -221.61730469 368.13726563 -222.74023438 368.17578125 C-231.78563992 368.27487882 -231.78563992 368.27487882 -235.45703125 365.2890625 C-238.96141321 361.31305162 -238.91306497 359.15880507 -239.05802917 353.90237427 C-239.07820071 353.18684851 -239.09837225 352.47132276 -239.11915505 351.73411441 C-239.18500864 349.29047121 -239.24204022 346.84672996 -239.29760742 344.40283203 C-239.32883684 343.10201923 -239.32883684 343.10201923 -239.36069715 341.77492738 C-239.99034768 314.98396608 -239.95395543 288.18391786 -239.98564246 261.38704413 C-239.98918904 258.50431562 -239.99332789 255.62158808 -239.99748212 252.73886039 C-240.01584507 239.97562427 -240.03160345 227.21238788 -240.03938007 214.44914055 C-240.04128858 211.36827468 -240.04320921 208.28740881 -240.04516602 205.20654297 C-240.04564976 204.44121459 -240.0461335 203.67588622 -240.0466319 202.88736607 C-240.05499911 190.38765539 -240.08049347 177.88803824 -240.11274669 165.38836871 C-240.14579052 152.47554987 -240.16382364 139.56277906 -240.16702431 126.64991772 C-240.16918447 119.43021595 -240.17786855 112.21065362 -240.20348549 104.9909935 C-240.22741028 98.2353773 -240.23103663 91.4800568 -240.22072411 84.72439194 C-240.22022714 82.24675661 -240.22659452 79.76910911 -240.24028015 77.29151154 C-240.25789524 73.91480957 -240.25094486 70.53902457 -240.23774719 67.162323 C-240.24871644 66.17987449 -240.25968568 65.19742597 -240.27098733 64.18520629 C-240.2160909 58.38332935 -239.59976899 55.11501067 -235.75 50.6875 C-231.79184544 48.3459917 -228.05939188 48.43952311 -223.52880859 48.44458008 C-222.82088669 48.44268173 -222.11296478 48.44078339 -221.3835907 48.43882751 C-219.05509188 48.43513752 -216.72690836 48.44579708 -214.3984375 48.45703125 C-212.7760929 48.45822401 -211.1537476 48.45867601 -209.53140259 48.4584198 C-206.1371018 48.45998151 -202.74290696 48.46824851 -199.34863281 48.48168945 C-194.99618885 48.49870591 -190.6438609 48.50250282 -186.29138756 48.50174427 C-182.94398897 48.50201602 -179.59661577 48.50749764 -176.24922562 48.51474571 C-174.64404111 48.51792878 -173.03885372 48.51989895 -171.43366623 48.52063942 C-169.19319491 48.52280527 -166.95284715 48.53155404 -164.71240234 48.54223633 C-163.43730804 48.54604813 -162.16221375 48.54985992 -160.84848022 48.55378723 C-157.75 48.6875 -157.75 48.6875 -154.75 49.6875 C-154.63785156 48.77484375 -154.63785156 48.77484375 -154.5234375 47.84375 C-151.63348702 28.57741348 -142.42243366 12.3831861 -128.75 -1.3125 C-127.61304688 -2.46685547 -127.61304688 -2.46685547 -126.453125 -3.64453125 C-90.37781896 -38.24617282 -34.59887775 -32.57066767 0 0 Z " fill="#46A246" transform="translate(707.75,311.3125)"/>
<path d="M0 0 C18.18690558 -0.66353553 36.02639562 6.62361103 49.79296875 18.2265625 C58.42543719 26.30253533 64.42483259 36.20921607 68.73046875 47.1640625 C69.34921875 48.7109375 69.34921875 48.7109375 69.98046875 50.2890625 C74.89811502 69.14003986 71.56120303 88.71259078 62.390625 105.63671875 C59.23474377 110.7333358 55.45999311 114.41937818 50.8828125 118.2578125 C48.91868072 119.99737023 47.39317284 121.72194334 45.79296875 123.7890625 C37.91977376 133.31063991 23.67567224 138.02172309 11.73046875 139.1640625 C-8.02521456 140.32669374 -25.66924536 137.00993498 -41.2578125 123.95703125 C-41.92167969 123.36535156 -42.58554687 122.77367187 -43.26953125 122.1640625 C-43.94371094 121.58269531 -44.61789062 121.00132812 -45.3125 120.40234375 C-53.81497911 112.55769668 -59.71684441 102.11388957 -63.26953125 91.1640625 C-63.56730469 90.30039062 -63.86507813 89.43671875 -64.171875 88.546875 C-69.70219699 70.14644883 -66.18204971 51.21486686 -57.3046875 34.515625 C-46.87832714 17.34515055 -30.60022903 6.09907593 -11.26953125 1.1640625 C-7.53670129 0.49227986 -3.77928589 0.27320139 0 0 Z " fill="#F7F7F7" transform="translate(560.26953125,422.8359375)"/>
<path d="M0 0 C1.57007813 -0.01740234 1.57007813 -0.01740234 3.171875 -0.03515625 C20.02264977 0.02725403 35.05051782 6.21736088 47.625 17.375 C48.21410156 17.87128906 48.80320312 18.36757813 49.41015625 18.87890625 C61.37376081 29.75243295 69.09180834 46.28615271 69.93359375 62.2890625 C70.54027969 81.83019305 67.15497647 98.06058431 54.625 113.375 C54.13386719 114.04402344 53.64273438 114.71304688 53.13671875 115.40234375 C43.60011569 127.8083672 26.98073755 136.33094693 11.625 138.375 C-5.75114421 139.71834742 -22.8582608 137.97902433 -37.375 127.375 C-40.23871858 124.52623816 -42.64683791 121.36568364 -45.09765625 118.16015625 C-47.16474202 115.63214226 -48.9315933 114.03711863 -51.625 112.25 C-61.08647614 105.68217451 -65.41506719 91.74347422 -67.6875 80.9375 C-70.46569593 62.27233903 -66.39662588 42.97168128 -55.09521484 27.63867188 C-41.10663046 10.28483668 -22.45406031 -0.24704956 0 0 Z " fill="#F7F7F6" transform="translate(720.375,423.625)"/>
<path d="M0 0 C40.53615487 9.00182198 40.53615487 9.00182198 51 24 C52.5547669 27.10953379 52.28644437 29.56266761 52 33 C46.59044825 44.28949931 33.83469898 48.94931088 22.80175781 53.02246094 C-7.37879891 63.55251924 -40.03062906 67.73383587 -71.73480225 70.77996826 C-73.97724325 70.99778951 -76.21830158 71.22703863 -78.45947266 71.45751953 C-134.49916422 77.08677984 -193.73561104 77.00645675 -249.75769043 71.2310791 C-252.04255836 70.99561419 -254.32826372 70.77014323 -256.61425781 70.54589844 C-354.38159108 60.81976126 -354.38159108 60.81976126 -376 37 C-378.3179589 33.38398412 -378.30150824 30.21823769 -377.5859375 25.98046875 C-375.71737255 19.66471922 -370.33053458 16.56365375 -364.9140625 13.50390625 C-354.38745526 8.07127383 -340.14479557 1 -328 1 C-327.98598145 2.778302 -327.98598145 2.778302 -327.97167969 4.5925293 C-327.93174002 9.00046045 -327.86597019 13.40769658 -327.79248047 17.81518555 C-327.7642939 19.72101905 -327.74306784 21.62696895 -327.72900391 23.53295898 C-327.70754217 26.27648406 -327.66087635 29.01861313 -327.609375 31.76171875 C-327.60814636 32.61086349 -327.60691772 33.46000824 -327.60565186 34.33488464 C-327.50545383 38.40229507 -327.31521581 40.50324144 -325.08691406 44.01489258 C-321.05282536 47.85218495 -317.0128468 47.14542092 -311.72459412 47.14044189 C-310.26381859 47.14489858 -310.26381859 47.14489858 -308.77353245 47.1494453 C-305.48890566 47.15816179 -302.2043152 47.15964309 -298.91967773 47.16113281 C-296.57261069 47.16575926 -294.22554441 47.17078368 -291.878479 47.17617798 C-284.81501804 47.19070275 -277.75156485 47.19669242 -270.68809161 47.20157349 C-267.35750578 47.20415141 -264.02692146 47.20796926 -260.69633675 47.21169281 C-249.61390936 47.22389396 -238.53148391 47.23418742 -227.44904995 47.2375679 C-226.73920244 47.23778747 -226.02935493 47.23800703 -225.29799688 47.23823325 C-224.2307117 47.23856067 -224.2307117 47.23856067 -223.14186519 47.2388947 C-221.70012693 47.23933816 -220.25838866 47.23978472 -218.81665039 47.24023438 C-218.10150251 47.2404558 -217.38635463 47.24067723 -216.6495356 47.24090537 C-205.09573547 47.24484215 -193.54199885 47.26225797 -181.98822319 47.2855939 C-170.11051493 47.30938885 -158.23283839 47.32177366 -146.35510594 47.32293582 C-139.69287369 47.32384871 -133.03071277 47.32982544 -126.36849785 47.34775543 C-120.08861535 47.36432532 -113.80888837 47.36634852 -107.5289917 47.35761642 C-105.23500716 47.35685055 -102.94101396 47.36112881 -100.64705086 47.37107468 C-66.065834 47.51209838 -36.48586888 38.51941932 -11.5625 13.875 C-7.27266049 9.53522218 -3.47406181 5.01808928 0 0 Z " fill="#F0F1F0" transform="translate(797,631)"/>
<path d="M0 0 C1.31640625 2.046875 1.31640625 2.046875 2.5625 4.75 C9.65439978 18.5050701 21.25881809 30.12940904 35 37 C35 60.43 35 83.86 35 108 C22.02087821 108.17113982 9.04175478 108.33960302 -3.9375 108.5 C-4.89827328 108.51187725 -5.85904655 108.5237545 -6.84893417 108.53599167 C-40.23492595 108.94638491 -73.61139021 109.13643425 -107 109 C-106.24548225 106.00843651 -105.48255532 103.01943033 -104.71484375 100.03125 C-104.50516968 99.19625977 -104.29549561 98.36126953 -104.07946777 97.50097656 C-101.93914347 89.22103653 -98.74234494 81.66928985 -95 74 C-94.52820313 73.02804687 -94.05640625 72.05609375 -93.5703125 71.0546875 C-86.96007928 58.24502651 -77.95283868 47.32146234 -68 37 C-67.28457031 36.22140625 -66.56914063 35.4428125 -65.83203125 34.640625 C-54.96672165 23.14337432 -16.87054135 -7.5900186 0 0 Z " fill="#74B553" transform="translate(607,570)"/>
<path d="M0 0 C20.83710288 -0.6945701 45.731592 17.5315577 60.5625 30.875 C61.30628906 31.57367187 62.05007813 32.27234375 62.81640625 32.9921875 C65.01534916 35.06348293 65.01534916 35.06348293 67.57421875 37.0390625 C81.34866513 48.17396118 92.41265827 66.67484875 99 83 C76.27166454 101.52425029 50.50158936 109.56501039 21.38256836 109.34057617 C19.80372636 109.3397269 18.22488319 109.34021087 16.64604187 109.34190369 C12.41980285 109.34275337 8.19382692 109.32529711 3.96764827 109.30418181 C-0.47121498 109.28524081 -4.91008634 109.28365101 -9.34898376 109.28010559 C-17.72789273 109.27083572 -26.1066822 109.24629155 -34.4855389 109.21605712 C-44.03591587 109.18235421 -53.586299 109.16598743 -63.13672078 109.15097082 C-82.75788016 109.1197366 -102.37893251 109.06707615 -122 109 C-122 108.67 -122 108.34 -122 108 C-93.95 108 -65.9 108 -37 108 C-37 84.57 -37 61.14 -37 37 C-34.69 36.34 -32.38 35.68 -30 35 C-27.32466326 33.13336887 -27.32466326 33.13336887 -25 30.8125 C-24.1440625 29.99652344 -23.288125 29.18054688 -22.40625 28.33984375 C-21.6121875 27.56769531 -20.818125 26.79554688 -20 26 C-19.3915625 25.46503906 -18.783125 24.93007813 -18.15625 24.37890625 C-12.8038403 19.51881726 -9.1263688 13.45713413 -5.234375 7.42578125 C-4.84604492 6.83087891 -4.45771484 6.23597656 -4.05761719 5.62304688 C-3.17639841 4.27070559 -2.30562402 2.91156565 -1.4375 1.55078125 C-0.963125 1.03902344 -0.48875 0.52726563 0 0 Z " fill="#52AD47" transform="translate(679,570)"/>
<path d="M0 0 C0.81218994 0.00507568 1.62437988 0.01015137 2.46118164 0.01538086 C3.08114014 0.02190674 3.70109863 0.02843262 4.33984375 0.03515625 C4.41017272 16.22170408 4.46294822 32.40820174 4.49528027 48.5948658 C4.51069693 56.11196144 4.5316859 63.6289617 4.56616211 71.14599609 C4.5962249 77.70391976 4.61545646 84.2617743 4.62210923 90.81976497 C4.62599317 94.2866802 4.63500989 97.7533978 4.65703392 101.22024918 C4.68151915 105.10666638 4.68180303 108.99289675 4.68041992 112.87939453 C4.69120575 114.00725372 4.70199158 115.13511292 4.71310425 116.29714966 C4.63818303 135.90729715 -1.64330126 152.27782412 -15.04296875 166.578125 C-25.18275555 176.3103641 -38.59411592 182.19728742 -52.66015625 183.03515625 C-53.94792969 183.11443359 -53.94792969 183.11443359 -55.26171875 183.1953125 C-72.97693362 183.74443641 -89.24494923 178.85188297 -102.72265625 167.16015625 C-117.73894951 152.3686578 -123.48186495 133.96893028 -123.71435547 113.36181641 C-123.35122442 97.77335304 -117.46152917 84.00194877 -107.66015625 72.03515625 C-107.139375 71.38804687 -106.61859375 70.7409375 -106.08203125 70.07421875 C-96.87128591 59.79353835 -81.78120734 53.40614597 -68.2578125 52.66015625 C-52.71723812 52.17125665 -40.97161223 54.67450915 -26.66015625 61.03515625 C-26.66015625 70.60515625 -26.66015625 80.17515625 -26.66015625 90.03515625 C-30.19359537 88.6217806 -33.56393284 87.13398773 -36.97631836 85.47094727 C-49.19285953 79.55931966 -59.29953029 77.36810444 -72.6953125 81 C-80.68096719 83.78814031 -86.44063211 88.74103982 -90.66015625 96.03515625 C-96.57914743 108.46124349 -97.51513217 120.82870499 -92.98046875 133.95703125 C-88.8474235 143.59265155 -82.90694564 149.85334388 -73.3203125 154.0625 C-64.57125941 157.13955757 -54.46808867 157.51651401 -45.77734375 154.0625 C-36.20346104 149.41687057 -29.63599459 142.90623927 -25.84765625 132.78515625 C-22.46709277 120.25834313 -22.37699301 107.7071628 -22.38576126 94.83545303 C-22.38673902 91.66474373 -22.37364219 88.49436193 -22.35678101 85.32369995 C-22.31085708 76.31999105 -22.28588226 67.31632237 -22.27929688 58.3125 C-22.27427649 52.77840606 -22.25001644 47.24466412 -22.21397018 41.71068954 C-22.20420094 39.61284373 -22.20182446 37.51494938 -22.20714188 35.41708755 C-22.21423097 32.48617117 -22.19689737 29.5563054 -22.17431641 26.62548828 C-22.18657509 25.34109108 -22.18657509 25.34109108 -22.19908142 24.03074646 C-22.10566355 17.19178179 -20.22953373 11.96720928 -15.6953125 6.79296875 C-10.44965018 2.45101459 -6.95831828 -0.05636801 0 0 Z " fill="#3CAE41" transform="translate(964.66015625,766.96484375)"/>
<path d="M0 0 C3.61636998 2.75857872 6.83109605 5.74274371 10 9 C10.54914063 9.51691406 11.09828125 10.03382813 11.6640625 10.56640625 C24.48775709 23.69869242 27.51554892 42.62486736 27.42016602 60.11621094 C27.00022767 77.23037561 20.71494076 90.96024393 8.859375 103.390625 C-3.97335679 115.10136931 -19.17396301 120.41066562 -36.55859375 120.21484375 C-47.13893684 119.5543229 -62.20637134 117.79362866 -70 110 C-70.22705078 107.20263672 -70.22705078 107.20263672 -70.1953125 103.6796875 C-70.18886719 102.42285156 -70.18242188 101.16601562 -70.17578125 99.87109375 C-70.15902344 98.55238281 -70.14226563 97.23367188 -70.125 95.875 C-70.11496983 94.53516279 -70.10584404 93.19531848 -70.09765625 91.85546875 C-70.07402075 88.57013427 -70.04107234 85.28515535 -70 82 C-65.12184837 83.91824511 -60.41543629 86.14448318 -55.703125 88.43359375 C-44.97154569 93.53656922 -33.75355297 95.01747385 -22.34375 91.03515625 C-12.72739093 86.78793099 -6.77881643 80.56670546 -2.6875 70.9375 C1.77140821 58.81889055 0.72228301 46.49859476 -4.5625 34.875 C-9.17347323 26.18895358 -15.46554308 20.91363131 -24.72265625 17.67578125 C-34.00745025 14.92060224 -43.68657322 15.14346488 -52.546875 19.15234375 C-62.34494489 24.51159107 -67.80040811 32.43500168 -71 43 C-72.74672291 51.00639719 -73.30189445 58.83668661 -73.31884766 67.01074219 C-73.32889328 68.14390869 -73.3389389 69.2770752 -73.34928894 70.44458008 C-73.37988346 74.14534045 -73.39708962 77.8460293 -73.4140625 81.546875 C-73.43279326 84.13047898 -73.45236807 86.71407696 -73.4727478 89.29766846 C-73.51866361 95.37462296 -73.5561433 101.45157443 -73.58942068 107.52860951 C-73.62782874 114.45505152 -73.67718899 121.3814025 -73.72740483 128.30776739 C-73.83033459 142.53844271 -73.91971985 156.76917976 -74 171 C-82.026046 171.11108891 -87.72210243 169.86419143 -93.8984375 164.28515625 C-99.70183758 157.81648836 -100.29837462 152.13154604 -100.29052734 143.68041992 C-100.29724457 142.64225128 -100.30396179 141.60408264 -100.31088257 140.53445435 C-100.32988696 137.09974377 -100.33378922 133.66522866 -100.3359375 130.23046875 C-100.34236794 127.83213726 -100.34909649 125.43380655 -100.35610962 123.03547668 C-100.3680915 118.00092759 -100.37178992 112.96644712 -100.37060547 107.93188477 C-100.3704032 101.51792107 -100.39760612 95.10440505 -100.43214989 88.69054699 C-100.45453238 83.73073865 -100.4584394 78.77103567 -100.45738602 73.81118202 C-100.45972874 71.44917585 -100.4684763 69.08716618 -100.48405075 66.72521019 C-100.61745413 44.38651942 -98.30786017 23.93185831 -82.18920898 6.9909668 C-60.34022492 -14.87292362 -25.5539828 -15.49995678 0 0 Z " fill="#3CAE41" transform="translate(665,830)"/>
<path d="M0 0 C11.98982827 9.98533685 18.36996336 22.89669181 21.3984375 38.0390625 C21.3984375 44.9690625 21.3984375 51.8990625 21.3984375 59.0390625 C-12.2615625 59.0390625 -45.9215625 59.0390625 -80.6015625 59.0390625 C-75.32578968 73.54743775 -70.88617584 79.31285536 -57.5 86.10546875 C-49.58155472 89.47813989 -41.11248217 89.96780226 -33 87.1015625 C-24.29346218 83.2445946 -18.07599035 76.87843722 -11.6015625 70.0390625 C-8.05922106 71.32966192 -5.21195639 72.85014037 -2.17578125 75.078125 C-1.37978516 75.65820312 -0.58378906 76.23828125 0.23632812 76.8359375 C1.05294922 77.43921875 1.86957031 78.0425 2.7109375 78.6640625 C3.54689453 79.27507812 4.38285156 79.88609375 5.24414062 80.515625 C7.29912211 82.01869717 9.35035867 83.52660571 11.3984375 85.0390625 C5.33271763 98.13148967 -3.68184232 106.11752408 -16.6015625 112.0390625 C-20.23491031 113.35569233 -23.80866693 114.31422578 -27.6015625 115.0390625 C-28.7153125 115.2659375 -29.8290625 115.4928125 -30.9765625 115.7265625 C-51.23893178 117.47331847 -69.45622802 112.60656681 -85.6015625 100.0390625 C-86.6121875 99.3171875 -87.6228125 98.5953125 -88.6640625 97.8515625 C-99.97624383 87.98144394 -107.54119226 72.54073856 -108.80493164 57.64135742 C-109.60845317 37.56137443 -105.2068626 20.32970383 -91.6015625 5.0390625 C-91.07046875 4.42675781 -90.539375 3.81445312 -89.9921875 3.18359375 C-65.62177727 -23.10163442 -26.70399798 -20.12823871 0 0 Z M-72.6015625 25.7265625 C-74.90621079 28.73007404 -75.65154586 30.23899595 -76.6015625 34.0390625 C-54.1615625 34.0390625 -31.7215625 34.0390625 -8.6015625 34.0390625 C-12.12886268 23.45716196 -17.71451815 18.14466737 -27.6015625 13.0390625 C-44.75359252 5.62054645 -61.20114572 11.63824257 -72.6015625 25.7265625 Z " fill="#3CAE41" transform="translate(810.6015625,834.9609375)"/>
<path d="M0 0 C18.15397793 14.08405958 27.87499747 32.59811755 31.6484375 55.0546875 C31.97714844 53.56582031 31.97714844 53.56582031 32.3125 52.046875 C37.56393937 29.15059936 48.05539003 10.346164 67.9921875 -2.734375 C85.69325315 -13.78792089 106.68441789 -18.07221876 127.1953125 -13.55859375 C128.00484375 -13.35621094 128.814375 -13.15382813 129.6484375 -12.9453125 C130.41671875 -12.77386719 131.185 -12.60242188 131.9765625 -12.42578125 C152.93715663 -7.04682084 169.10274107 6.64395237 180.3359375 24.8046875 C190.41432273 42.75249682 193.79750425 63.9807896 188.6484375 84.0546875 C182.19639254 105.37924287 169.441799 123.33724404 149.7890625 134.4453125 C128.70418574 145.25000059 107.16642939 146.997735 84.6484375 140.0546875 C81.51511838 138.87169967 78.63684703 137.57605963 75.6484375 136.0546875 C75.3184375 137.0446875 74.9884375 138.0346875 74.6484375 139.0546875 C71.42052195 141.2066312 70.36442941 141.25555193 66.6484375 141.0546875 C67.7459598 138.06144487 68.32526642 137.20857849 71.2734375 135.8046875 C72.0571875 135.5571875 72.8409375 135.3096875 73.6484375 135.0546875 C73.50612942 133.63766237 73.35943004 132.2210779 73.2109375 130.8046875 C73.12972656 130.01578125 73.04851562 129.226875 72.96484375 128.4140625 C72.67178685 126.22879869 72.20087475 124.18579776 71.6484375 122.0546875 C72.73640625 122.59738281 73.824375 123.14007812 74.9453125 123.69921875 C93.23688691 132.68191236 112.41830737 137.15326424 132.38671875 130.37109375 C147.73873918 124.17512862 159.9591417 116.4821975 168.6484375 102.0546875 C169.09574219 101.384375 169.54304688 100.7140625 170.00390625 100.0234375 C179.72736416 84.46590484 181.3428637 64.16628058 177.5859375 46.4921875 C171.76138781 27.79374994 159.77209871 13.12536813 142.7109375 3.59375 C126.89880851 -4.35265156 106.23589558 -6.28190891 89.2734375 -0.8203125 C87.04143002 0.08150871 84.82955453 1.03592973 82.6484375 2.0546875 C81.68292969 2.4775 80.71742188 2.9003125 79.72265625 3.3359375 C63.51519991 11.22188514 51.81567783 26.41658742 45.6484375 43.0546875 C40.06358907 61.64274906 41.83047553 79.84426046 50.8671875 96.86474609 C51.38152344 97.81728271 51.38152344 97.81728271 51.90625 98.7890625 C53.6484375 102.0546875 53.6484375 102.0546875 54.6484375 105.0546875 C54.10316406 104.86132812 53.55789063 104.66796875 52.99609375 104.46875 C50.55753854 103.62671897 48.108749 102.83083477 45.6484375 102.0546875 C44.94074219 101.83039063 44.23304688 101.60609375 43.50390625 101.375 C32.83899352 98.48617392 23.14644494 100.75326224 13.23046875 105.09375 C12.37839844 105.41085937 11.52632812 105.72796875 10.6484375 106.0546875 C9.9884375 105.7246875 9.3284375 105.3946875 8.6484375 105.0546875 C9.19113281 104.00410156 9.73382812 102.95351563 10.29296875 101.87109375 C18.14779024 86.5199013 20.98046625 74.34202663 20.6484375 57.0546875 C20.64070313 55.77658203 20.64070313 55.77658203 20.6328125 54.47265625 C19.81766488 39.24686317 9.28539307 23.24682493 -1.3515625 13.0546875 C-15.71073139 1.0393692 -33.81826795 -4.54778802 -52.3515625 -3.9453125 C-53.06054688 -3.92855469 -53.76953125 -3.91179687 -54.5 -3.89453125 C-69.70115511 -2.90560852 -85.50628894 5.63058961 -96.3515625 16.0546875 C-110.35452087 32.05159463 -116.94990733 50.61901149 -115.5703125 71.73974609 C-113.74277207 91.07985587 -104.1645016 106.78785367 -89.6953125 119.36328125 C-74.26078174 131.37043827 -57.33061412 134.33031527 -38.3515625 133.0546875 C-26.3472158 131.43042072 -15.35645653 126.78875079 -5.3515625 120.0546875 C-5.6403125 120.8590625 -5.9290625 121.6634375 -6.2265625 122.4921875 C-7.53513429 126.63599817 -8.46374015 130.80447413 -9.3515625 135.0546875 C-8.5471875 135.3021875 -7.7428125 135.5496875 -6.9140625 135.8046875 C-4.3515625 137.0546875 -4.3515625 137.0546875 -3.5390625 139.1796875 C-3.4771875 139.7984375 -3.4153125 140.4171875 -3.3515625 141.0546875 C-7.94098558 140.55853365 -7.94098558 140.55853365 -10.01953125 138.0078125 C-10.45910156 137.36328125 -10.89867187 136.71875 -11.3515625 136.0546875 C-12.12757813 136.38082031 -12.90359375 136.70695313 -13.703125 137.04296875 C-35.92636871 146.03303989 -57.45669316 146.77275471 -79.81054688 137.65625 C-100.01019074 128.82810179 -113.89075509 112.45337676 -122.24609375 92.39453125 C-125.38357868 82.91555734 -126.88408918 74.17382183 -126.7890625 64.1796875 C-126.77552734 62.46579834 -126.77552734 62.46579834 -126.76171875 60.71728516 C-126.37966593 42.08955725 -118.96724486 24.80192915 -106.3515625 11.0546875 C-105.67609375 10.28769531 -105.000625 9.52070313 -104.3046875 8.73046875 C-76.91632585 -20.70702215 -32.08842073 -21.68136536 0 0 Z " fill="#28763E" transform="translate(610.3515625,427.9453125)"/>
<path d="M0 0 C1.63243652 0.01244751 1.63243652 0.01244751 3.29785156 0.02514648 C19.40621131 0.36043901 36.09479607 4.51740507 47.75 16.4375 C54.91457044 24.61823034 58.74087169 32.01301978 61.75 42.4375 C61.93070541 42.99729553 62.11141083 43.55709106 62.29759216 44.1338501 C62.9627813 47.52097732 62.88015755 50.88981312 62.86352539 54.32714844 C62.86367142 55.11777176 62.86381744 55.90839508 62.8639679 56.72297668 C62.86327236 59.33097089 62.85549675 61.9388933 62.84765625 64.546875 C62.8457908 66.35719768 62.84436749 68.16752087 62.84336853 69.97784424 C62.83955339 74.73880409 62.82973165 79.49973337 62.81866455 84.26068115 C62.80842887 89.12039781 62.80386629 93.98011942 62.79882812 98.83984375 C62.7881085 108.37240926 62.7710441 117.90495208 62.75 127.4375 C55.45589592 127.53427087 50.88313875 126.7040313 44.75 122.4375 C39.492364 117.07168219 36.5044872 111.39508877 36.49462891 103.81201172 C36.48766998 102.70671112 36.48071106 101.60141052 36.47354126 100.46261597 C36.47453827 99.27612457 36.47553528 98.08963318 36.4765625 96.8671875 C36.45626446 94.33593315 36.43541351 91.80468319 36.4140625 89.2734375 C36.39152199 85.29748842 36.37501361 81.32171304 36.36914062 77.34570312 C36.35956541 73.4983809 36.3257169 69.65183421 36.2890625 65.8046875 C36.29663071 64.04316849 36.29663071 64.04316849 36.30435181 62.24606323 C36.19830883 53.25769307 34.51516265 45.7479006 29.625 38.125 C20.65438114 29.7394215 10.08741056 26.0725643 -2.1484375 26.28515625 C-12.30517459 27.0214253 -21.23473644 31.01058283 -28.25 38.4375 C-35.65011604 47.9232856 -37.8807007 59.19636367 -37.0703125 71.0703125 C-35.46103822 81.28427782 -30.64930906 90.29665514 -22.625 96.81640625 C-13.70274786 102.90643032 -4.90705051 104.27527969 5.75 103.4375 C16.59352157 101.13500188 24.09737853 92.80692701 30.75 84.4375 C31.08 84.4375 31.41 84.4375 31.75 84.4375 C32.02335034 89.15097738 32.22209484 93.85979439 32.35424805 98.5793457 C32.40934644 100.18140012 32.48426105 101.78290664 32.57983398 103.38305664 C32.8827296 108.58735397 32.95132098 113.34066547 31.75 118.4375 C28.55871324 122.00826545 25.16694723 123.71167779 20.75 125.4375 C19.23249146 126.07619019 19.23249146 126.07619019 17.68432617 126.7277832 C3.29349338 132.54301468 -12.60930009 131.56188893 -26.96875 125.99609375 C-42.69308726 118.62958358 -53.73176581 106.46070969 -60.25 90.4375 C-67.00775482 71.41954603 -66.35181638 50.60820306 -58.0625 32.1875 C-50.04929793 17.52504516 -37.38959119 7.53886174 -21.51245117 2.58300781 C-14.25182982 0.65614821 -7.50111798 -0.07458832 0 0 Z " fill="#3CAE41" transform="translate(1116.25,819.5625)"/>
<path d="M0 0 C14.22973487 10.89179593 23.28779828 24.90147617 26.375 42.75 C28.5942292 61.95486806 24.79373865 79.37078243 13.4140625 95.20703125 C1.67347046 109.72527555 -14.95608089 116.75851937 -33 119 C-49.46640388 120.59781817 -66.43694223 115.70674098 -79.390625 105.41796875 C-92.86570393 93.95824245 -101.66687245 79.24268025 -103.22119141 61.47094727 C-104.12924241 41.57690209 -100.39395148 23.88285518 -86.75 8.625 C-64.41338317 -15.13017987 -26.63169227 -17.86154511 0 0 Z M-67.3984375 26.9296875 C-74.72181774 36.39649611 -76.84772554 48.35727771 -75.53515625 60.01953125 C-73.6154252 70.71117206 -69.04178557 80.28805093 -60.25 86.875 C-50.62779784 93.05557992 -40.52663878 94.46170951 -29.265625 92.53125 C-19.11281948 89.88269204 -11.3992796 83.97542583 -6 75 C-0.14698004 62.19095937 0.43241527 50.33284753 -4 37 C-8.18137358 27.12093055 -15.16006644 20.24077945 -25 16 C-40.45838728 10.86503398 -56.25478839 15.17542748 -67.3984375 26.9296875 Z " fill="#3CAE41" transform="translate(273,831)"/>
<path d="M0 0 C12.99694892 10.15667516 22.85737724 24.24695927 24.94921875 40.89453125 C26.22616286 60.97219717 24.32448601 79.6107642 10.51171875 95.33203125 C9.00983836 96.87158422 7.49019289 98.39410906 5.94921875 99.89453125 C5.35882812 100.51714844 4.7684375 101.13976562 4.16015625 101.78125 C-7.59924656 113.30753689 -24.0874992 117.71173964 -40.11328125 118.26953125 C-58.44131366 117.62644239 -74.34196475 111.19764493 -87.05078125 97.89453125 C-87.7675 97.18554688 -88.48421875 96.4765625 -89.22265625 95.74609375 C-101.80808871 82.64021108 -104.53999726 67.19437606 -104.40014648 49.68505859 C-103.9995787 32.29634327 -98.02294626 17.7821412 -85.73828125 5.44921875 C-62.10905467 -17.01228442 -26.49574704 -18.28579726 0 0 Z M-68.05078125 24.89453125 C-75.36476469 34.50915736 -78.26045105 45.91544004 -77.05078125 57.89453125 C-75.31550486 69.01476077 -71.03176632 78.2408601 -62.203125 85.42578125 C-52.35812753 92.14396464 -41.45309512 93.39639412 -29.81640625 91.31640625 C-20.47984798 88.65572902 -13.50977221 82.92502376 -8.11328125 74.89453125 C-4.17424034 67.65618764 -2.50733731 60.73691289 -2.61328125 52.51953125 C-2.62085449 51.69026123 -2.62842773 50.86099121 -2.63623047 50.0065918 C-2.94062304 38.63630741 -6.89669373 30.41151337 -14.640625 22.2109375 C-22.07106917 15.20009488 -31.86079043 12.56984569 -41.9140625 12.7421875 C-51.99314017 13.46080547 -61.17110648 17.40117657 -68.05078125 24.89453125 Z " fill="#3CAE41" transform="translate(526.05078125,832.10546875)"/>
<path d="M0 0 C0 33 0 66 0 100 C12.41109675 99.13916255 12.41109675 99.13916255 22 94 C24.35324249 91.06211206 24.35324249 91.06211206 26.19140625 87.6171875 C26.54460434 87.00287872 26.89780243 86.38856995 27.26170349 85.75564575 C28.37879297 83.80444241 29.47100415 81.84061239 30.5625 79.875 C31.29717616 78.57979074 32.0334929 77.28551062 32.77148438 75.9921875 C33.13085083 75.35940887 33.49021729 74.72663025 33.86047363 74.07467651 C34.57844335 72.81599979 35.30148082 71.56019971 36.02966309 70.30740356 C37.62850281 67.53687282 39.07535416 64.81880596 40.3046875 61.86279297 C41.61328487 58.9345467 42.56153371 57.09462879 45 55 C50.34777196 53.78214833 55.43405235 54.05171499 60.875 54.375 C62.34099452 54.42520529 63.80715369 54.47082507 65.2734375 54.51171875 C68.85239917 54.62149334 72.42515117 54.79374652 76 55 C72.63479469 61.85282076 69.22264135 68.62844727 65.3125 75.1875 C64.89532715 75.89165039 64.4781543 76.59580078 64.04833984 77.32128906 C60.83882598 82.69386544 57.51390309 87.98898972 54.125 93.25 C53.67294189 93.95278076 53.22088379 94.65556152 52.75512695 95.37963867 C50.34296729 99.08307933 47.83421969 102.59893637 45 106 C45.6290625 106.25652344 46.258125 106.51304687 46.90625 106.77734375 C55.44519348 110.59672058 61.7253985 115.87952092 65.2109375 124.76171875 C68.45830185 135.02669249 67.41500192 146.11204607 67.25 156.75 C67.22990477 159.00779666 67.21165935 161.26561059 67.1953125 163.5234375 C67.15155645 169.01600598 67.08488441 174.50792117 67 180 C59.36670175 180.07370014 53.83611543 179.49334466 47.9453125 174.12890625 C41.83848638 167.42660123 40.72294761 162.11544615 40.5 153.25 C40.29991711 141.66866793 40.29991711 141.66866793 36.1875 131.0625 C31.98533441 127.10045816 27.79496676 126.73466873 22.16796875 126.5859375 C21.00289795 126.55032715 19.83782715 126.5147168 18.63745117 126.47802734 C17.16896729 126.44402832 15.7004834 126.4100293 14.1875 126.375 C9.505625 126.25125 4.82375 126.1275 0 126 C0 143.82 0 161.64 0 180 C-8.25724017 180 -13.39387983 178.99197081 -19.640625 173.578125 C-26.55820391 165.82710285 -26.43808695 158.01233751 -26.40405273 148.12939453 C-26.40976156 146.724258 -26.4167278 145.31912611 -26.42485046 143.91400146 C-26.44274218 140.11221274 -26.44162088 136.31065534 -26.43590808 132.50883722 C-26.43280993 129.32809738 -26.43891574 126.14740157 -26.44494683 122.96666801 C-26.45897782 115.4586982 -26.45744313 107.9508422 -26.44604492 100.44287109 C-26.43456942 92.71349051 -26.4486329 84.98445714 -26.4754414 77.2551223 C-26.49764002 70.60434 -26.5042263 63.95366635 -26.49836498 57.30284965 C-26.4950036 53.33709069 -26.49735547 49.37155416 -26.51461601 45.40582657 C-26.53014937 41.67428164 -26.52605966 37.9432485 -26.50731087 34.21172333 C-26.5019024 32.20129079 -26.51609099 30.19083493 -26.53100586 28.18045044 C-26.46348365 19.84572712 -25.50883144 13.17850901 -20.03515625 6.66015625 C-12.73845289 0.75054897 -10.0541846 0 0 0 Z " fill="#3CAE41" transform="translate(342,767)"/>
<path d="M0 0 C13.58244188 14.20434855 20.50472016 30.68194953 24.25 49.6875 C19.97948913 50.19028011 15.7085415 50.68924923 11.4375 51.1875 C10.22255859 51.33058594 9.00761719 51.47367187 7.75585938 51.62109375 C6.59248047 51.75644531 5.42910156 51.89179688 4.23046875 52.03125 C2.62014771 52.21977539 2.62014771 52.21977539 0.97729492 52.41210938 C-1.75 52.6875 -1.75 52.6875 -4.75 52.6875 C-5.09611328 51.34558594 -5.09611328 51.34558594 -5.44921875 49.9765625 C-10.0439261 32.9416396 -17.36391047 20.14287464 -32.75 10.6875 C-48.68014854 1.80915887 -66.75014971 0.20380147 -84.20874023 4.92114258 C-99.33487716 9.37779871 -110.38796847 18.33469076 -118.75 31.6875 C-122.03665014 38.16460564 -124.0675541 44.65593236 -125.75 51.6875 C-145.71810934 50.72394647 -145.71810934 50.72394647 -154.75 49.6875 C-152.29569804 29.71455994 -142.84686284 12.8083371 -128.75 -1.3125 C-127.99203125 -2.08207031 -127.2340625 -2.85164063 -126.453125 -3.64453125 C-90.37781896 -38.24617282 -34.59887775 -32.57066767 0 0 Z " fill="#4D4D4C" transform="translate(707.75,311.3125)"/>
<path d="M0 0 C0 10.23 0 20.46 0 31 C14.19 31 28.38 31 43 31 C43 39.58 43 48.16 43 57 C28.81 57 14.62 57 0 57 C0.11990433 68.43079345 0.11990433 68.43079345 0.2578125 79.86132812 C0.31807157 84.52477815 0.376242 89.18818757 0.421875 93.85180664 C0.45880627 97.61260387 0.50518718 101.37317768 0.55806351 105.13378334 C0.57656588 106.56702052 0.59168914 108.00030551 0.60334396 109.43361473 C0.62027694 111.44436452 0.65044472 113.45498957 0.68115234 115.46557617 C0.69447601 116.60919113 0.70779968 117.75280609 0.7215271 118.93107605 C1.00218938 122.02412815 1.61665066 124.23130783 3 127 C9.72017835 131.70751007 20.17803382 130.56240688 28.0625 130.6875 C29.51500355 130.72073621 30.96747886 130.75523151 32.41992188 130.79101562 C35.94663325 130.87752366 39.47242756 130.93818755 43 131 C43 139.25 43 147.5 43 156 C37.48600861 156.06924547 31.97355401 156.12886477 26.45947266 156.16479492 C24.58767557 156.17978865 22.71591306 156.2001905 20.84423828 156.22631836 C5.92762669 156.42918428 -5.45042611 156.21799147 -16.6875 145.37109375 C-22.93112634 138.64358637 -26.08061839 130.48295319 -26.16062927 121.32795715 C-26.1706749 120.41839264 -26.18072052 119.50882813 -26.19107056 118.57170105 C-26.19690155 117.58615738 -26.20273254 116.60061371 -26.20874023 115.58520508 C-26.21852402 114.53739868 -26.2283078 113.48959229 -26.23838806 112.41003418 C-26.2682726 108.94654601 -26.28970807 105.48309624 -26.30859375 102.01953125 C-26.31516558 100.83404882 -26.3217374 99.6485664 -26.32850838 98.42716026 C-26.36107118 92.15221728 -26.38552991 85.87729107 -26.4050293 79.60229492 C-26.42283957 74.41779831 -26.45766134 69.23384584 -26.50756836 64.04956055 C-26.56784279 57.78027041 -26.59851492 51.51148465 -26.60820198 45.24191856 C-26.61674452 42.85816259 -26.63553266 40.47441966 -26.6649456 38.09082985 C-26.70398449 34.74721564 -26.70487786 31.40555676 -26.69702148 28.06176758 C-26.71702209 27.08634506 -26.73702271 26.11092255 -26.75762939 25.10594177 C-26.68090955 17.79527809 -24.46698311 12.77592196 -20 7 C-14.20084309 1.4072881 -8.00194476 0 0 0 Z " fill="#3CAE41" transform="translate(120,791)"/>
<path d="M0 0 C12.87142499 -1.0269754 22.36442908 2.97802776 32.5234375 10.765625 C41.741178 19.08194608 46.44475456 29.93476825 47.19140625 42.125 C47.63872337 55.28478116 43.98147565 67.37531739 34.96484375 77.22265625 C29.85039897 82.04845511 24.45770999 85.28096421 18 88 C17.30519531 88.3196875 16.61039063 88.639375 15.89453125 88.96875 C6.04618284 92.95982553 -5.38611786 92.07034847 -15.15234375 88.32421875 C-29.41213369 81.69312302 -37.09343496 72.38265272 -43 58 C-45.46780287 47.23010886 -45.38648608 34.85420698 -40 25 C-38.36328125 23.20703125 -38.36328125 23.20703125 -37 22 C-36.505 23.051875 -36.01 24.10375 -35.5 25.1875 C-32.72840451 30.06748777 -28.29743672 33.0139094 -22.94921875 34.61328125 C-16.06764743 35.97856293 -10.9283403 34.40991002 -5 31 C-0.9131518 27.71275253 1.80121013 24.13899843 3 19 C3.64657391 12.33054578 3.72661424 7.69836781 0 2 C0 1.34 0 0.68 0 0 Z " fill="#5D5B5B" transform="translate(569,448)"/>
<path d="M0 0 C15.18609676 -0.69378107 27.04306962 1.45112038 38.93359375 11.66015625 C46.06945555 18.39702363 49.62264334 25.55482624 52 35 C52.18433594 35.64582031 52.36867188 36.29164063 52.55859375 36.95703125 C54.98876907 48.20465683 51.75743887 59.48638638 46.25 69.3125 C39.16741497 80.14675135 29.28050387 86.69004872 16.9375 90.4375 C3.8661478 92.30483603 -7.84128526 90.90727744 -18.875 83.25 C-28.77630857 75.44984121 -35.10640527 66.38100044 -38 54 C-38.29220289 50.86935423 -38.32505058 47.76766428 -38.3125 44.625 C-38.32861328 43.82578125 -38.34472656 43.0265625 -38.36132812 42.203125 C-38.3660907 36.31657813 -37.16163922 31.46175813 -35 26 C-34.278125 26.7425 -33.55625 27.485 -32.8125 28.25 C-27.53729701 33.40797626 -23.28595777 36.9825022 -15.75 37.375 C-9.77467381 37.20598079 -4.64079862 35.38123294 -0.171875 31.3515625 C4.83070116 25.79044628 6.46184124 21.03613578 6.328125 13.5703125 C5.6575003 8.31708567 2.88189308 4.32283962 0 0 Z " fill="#5C5A5A" transform="translate(711,448)"/>
<path d="M0 0 C5.98598824 5.38631858 10.07548063 11.41035557 10.68359375 19.52734375 C10.62890625 21.91015625 10.62890625 21.91015625 10.18359375 23.96484375 C7.55859375 25.90234375 7.55859375 25.90234375 4.18359375 27.96484375 C2.77050596 29.9970501 2.77050596 29.9970501 1.49609375 32.40234375 C-4.97868276 43.8772749 -15.11540259 55.7083134 -26.81640625 61.96484375 C-33.16910393 62.9177484 -36.4257237 61.55334779 -41.5390625 57.77734375 C-42.29058594 57.17921875 -43.04210937 56.58109375 -43.81640625 55.96484375 C-44.53699219 55.40796875 -45.25757813 54.85109375 -46 54.27734375 C-54.30282789 47.41012069 -61.265961 38.46836374 -66.75390625 29.21484375 C-68.80712631 25.97946669 -69.49416135 25.37974555 -72.81640625 23.96484375 C-73.63984571 16.38920075 -70.61015689 10.67499551 -66.1015625 4.6875 C-60.78076045 -1.56473348 -55.64190703 -5.45191532 -47.94140625 -8.22265625 C-47.25949219 -8.48240234 -46.57757812 -8.74214844 -45.875 -9.00976562 C-29.61351996 -15.00328256 -13.26743298 -10.58262361 0 0 Z " fill="#EFA70D" transform="translate(673.81640625,539.03515625)"/>
<path d="M0 0 C8.58 0 17.16 0 26 0 C26 41.25 26 82.5 26 125 C18.00586907 125 14.33623586 124.40781625 8 120 C1.0283903 112.88494155 -0.29774318 106.26986764 -0.22705078 96.61010742 C-0.22734283 95.56574524 -0.22763489 94.52138306 -0.22793579 93.44537354 C-0.22654415 89.99865365 -0.21099052 86.55215081 -0.1953125 83.10546875 C-0.19158179 80.71364968 -0.18873509 78.32182908 -0.18673706 75.93000793 C-0.17910523 69.63847627 -0.15946049 63.34703713 -0.1373291 57.05554199 C-0.11686105 50.63404593 -0.10773328 44.21253491 -0.09765625 37.79101562 C-0.07621426 25.19396325 -0.04103567 12.5970038 0 0 Z " fill="#3CAE41" transform="translate(999,822)"/>
<path d="M0 0 C14.23240242 0.98112878 27.06654052 5.1232842 36.83984375 16.05859375 C39.4689299 19.45904991 41.97123352 22.78205743 43 27 C43.18691406 27.66773438 43.37382813 28.33546875 43.56640625 29.0234375 C44.01570738 31.79491607 43.98946108 33.35552107 43 36 C39.10931853 39.45549673 34.61640992 41.6816664 30 44 C28.60645772 44.72335544 27.21323337 45.44732367 25.8203125 46.171875 C21.90970222 48.1790869 17.97837692 50.13060419 14 52 C13.38737305 52.29567871 12.77474609 52.59135742 12.14355469 52.89599609 C8.55214885 54.55394114 5.9192964 55.13570971 2 55 C1.98969254 54.443694 1.97938507 53.887388 1.96876526 53.31422424 C1.86003194 47.48973407 1.74549443 41.66537797 1.62768555 35.84106445 C1.58454946 33.67149682 1.54286074 31.50189988 1.50268555 29.33227539 C1.44446265 26.2018961 1.38092197 23.07166143 1.31640625 19.94140625 C1.29969376 18.98166397 1.28298126 18.02192169 1.26576233 17.03309631 C1.14141329 11.29561711 0.71661834 5.6946931 0 0 Z " fill="#F7D12A" transform="translate(641,527)"/>
<path d="M0 0 C0.82306326 -0.00407553 1.64612652 -0.00815105 2.49413109 -0.01235008 C6.83763745 -0.03306746 11.18111341 -0.04743924 15.5246582 -0.05688477 C20.00138429 -0.06801658 24.47762258 -0.10253394 28.954175 -0.14205647 C32.41058784 -0.1681796 35.86688235 -0.17657194 39.32338524 -0.18016624 C40.97440129 -0.18503068 42.6254121 -0.19664069 44.27633095 -0.21520424 C46.58086259 -0.2395413 48.88410004 -0.23864326 51.1887207 -0.23168945 C52.49758743 -0.23755569 53.80645416 -0.24342194 55.15498352 -0.24946594 C59.15000798 0.32041645 60.79916126 1.35089754 63.57421875 4.23828125 C64.38671875 7.48828125 64.38671875 7.48828125 64.57421875 10.23828125 C63.50953369 10.14740234 63.50953369 10.14740234 62.42333984 10.0546875 C13.5824404 6.02273517 -36.83477938 6.88059875 -84.6796875 18.484375 C-88.12616176 19.17798244 -89.26338327 19.21808685 -92.42578125 18.23828125 C-72.65495443 7.75037086 -52.17711174 2.9757558 -29.95214844 1.43814087 C-27.69358643 1.25946718 -25.46156336 1.00279976 -23.21289062 0.73071289 C-15.49774536 -0.04485017 -7.74620951 0.03258219 0 0 Z " fill="#77B36C" transform="translate(745.42578125,365.76171875)"/>
<path d="M0 0 C1.32 0.33 2.64 0.66 4 1 C4 1.66 4 2.32 4 3 C4.87265503 3.1868335 4.87265503 3.1868335 5.76293945 3.37744141 C8.0114396 4.00318356 9.75813142 4.82883459 11.79296875 5.9609375 C12.50646484 6.35023438 13.21996094 6.73953125 13.95507812 7.140625 C15.42509476 7.9534426 16.89388032 8.76849129 18.36132812 9.5859375 C25.68213333 13.57076254 32.58051771 17.18282874 41 15 C46.1487738 12.90537095 51.10505481 10.50938234 56.0625 8 C56.74376953 7.65710938 57.42503906 7.31421875 58.12695312 6.9609375 C59.45758781 6.29114636 60.78784416 5.62060293 62.11767578 4.94921875 C64.74170256 3.62597412 67.37064844 2.3126248 70 1 C68.08407897 7.66239874 64.44229745 11.80710746 60 17 C59.29359375 17.85335937 58.5871875 18.70671875 57.859375 19.5859375 C44.57709489 35.11378295 44.57709489 35.11378295 35.875 35.875 C30.59788271 34.68339287 27.19402591 32.33795544 23 29 C21.91912109 28.1646875 21.91912109 28.1646875 20.81640625 27.3125 C12.62850235 20.54032993 5.04033451 11.3963852 0 2 C0 1.34 0 0.68 0 0 Z " fill="#F3A223" transform="translate(607,566)"/>
<path d="M0 0 C4.02030086 2.87164347 6.07592353 6.22777059 7.625 10.875 C8.2127218 16.86976236 6.88620863 20.94423063 3.625 25.875 C-0.51497177 29.76406439 -4.62698824 30.16971527 -10.09375 30.08984375 C-14.80406529 29.64623529 -17.57914341 27.75689514 -20.6875 24.3125 C-24.28272138 19.11940245 -23.94860735 14.05541722 -23.375 7.875 C-21.62122296 4.03018112 -20.15361729 2.43115521 -16.75 0 C-11.00668166 -1.91443945 -5.74331834 -1.91443945 0 0 Z " fill="#3CAE41" transform="translate(1020.375,783.125)"/>
<path d="M0 0 C1.32 0.33 2.64 0.66 4 1 C4 1.66 4 2.32 4 3 C4.87265503 3.1868335 4.87265503 3.1868335 5.76293945 3.37744141 C8.0114396 4.00318356 9.75813142 4.82883459 11.79296875 5.9609375 C12.50646484 6.35023438 13.21996094 6.73953125 13.95507812 7.140625 C15.42509476 7.9534426 16.89388032 8.76849129 18.36132812 9.5859375 C25.68213333 13.57076254 32.58051771 17.18282874 41 15 C46.1487738 12.90537095 51.10505481 10.50938234 56.0625 8 C56.74376953 7.65710938 57.42503906 7.31421875 58.12695312 6.9609375 C59.45758781 6.29114636 60.78784416 5.62060293 62.11767578 4.94921875 C64.74170256 3.62597412 67.37064844 2.3126248 70 1 C68.63914145 6.56714861 68.63914145 6.56714861 65.90625 8.41796875 C64.46765625 9.20107422 64.46765625 9.20107422 63 10 C61.76311236 10.71666476 60.52752836 11.43558227 59.29296875 12.15625 C57.92496164 12.93834453 56.55646099 13.71957633 55.1875 14.5 C54.51396484 14.89058594 53.84042969 15.28117188 53.14648438 15.68359375 C45.32158777 20.13142971 39.09480507 23.24853114 30 21 C27.0707894 19.97867879 24.33203877 18.7049679 21.5625 17.3125 C20.82821777 16.95309326 20.09393555 16.59368652 19.33740234 16.22338867 C3.14333672 8.19771107 3.14333672 8.19771107 0 2 C0 1.34 0 0.68 0 0 Z " fill="#E67421" transform="translate(607,566)"/>
<path d="M0 0 C1.64666203 0.1135629 3.29236082 0.24117381 4.9375 0.375 C5.85402344 0.44460938 6.77054688 0.51421875 7.71484375 0.5859375 C8.84599609 0.79089844 8.84599609 0.79089844 10 1 C11.30200895 3.6040179 10.9051093 5.03635059 10.546875 7.91796875 C10.4236084 8.91876465 10.3003418 9.91956055 10.17333984 10.95068359 C9.96378662 12.55290771 9.96378662 12.55290771 9.75 14.1875 C9.61158691 15.26854004 9.47317383 16.34958008 9.33056641 17.46337891 C6.48474766 39.03050467 6.48474766 39.03050467 4 44 C3.34 44 2.68 44 2 44 C1.97494385 42.98687744 1.9498877 41.97375488 1.92407227 40.92993164 C1.82915355 37.13343921 1.72914713 33.33709423 1.62768555 29.54077148 C1.58465327 27.90473913 1.54295935 26.26867095 1.50268555 24.63256836 C1.21412114 12.2845367 1.21412114 12.2845367 0 0 Z " fill="#F7EF95" transform="translate(641,527)"/>
<path d="M0 0 C1.67199162 0.00119696 3.34398392 0.00164388 5.01597595 0.00138855 C8.47203956 0.00293198 11.9279964 0.01106559 15.3840332 0.0246582 C19.8168848 0.04187376 24.24962255 0.04546496 28.6825037 0.04471302 C32.1130431 0.04498404 35.54355754 0.05045055 38.97408867 0.05771446 C40.61080169 0.06089402 42.24751753 0.06286687 43.88423347 0.06360817 C46.15212036 0.06576648 48.41988367 0.07449285 50.68774414 0.08520508 C52.62031822 0.09092278 52.62031822 0.09092278 54.5919342 0.09675598 C57.58984375 0.23046875 57.58984375 0.23046875 59.58984375 1.23046875 C59.58984375 1.89046875 59.58984375 2.55046875 59.58984375 3.23046875 C27.57984375 3.23046875 -4.43015625 3.23046875 -37.41015625 3.23046875 C-37.41015625 2.90046875 -37.41015625 2.57046875 -37.41015625 2.23046875 C-24.88840786 0.69818576 -12.61020864 -0.0610387 0 0 Z " fill="#8CBE80" transform="translate(746.41015625,365.76953125)"/>
<path d="M0 0 C1.99025761 2.48671385 3.97946143 4.97423492 5.96484375 7.46484375 C6.61582031 8.28082031 7.26679687 9.09679687 7.9375 9.9375 C8.58589844 10.75089844 9.23429688 11.56429687 9.90234375 12.40234375 C10.59457031 13.25957031 11.28679688 14.11679687 12 15 C12.77859375 15.98613281 13.5571875 16.97226562 14.359375 17.98828125 C17.02829867 21.17251995 20.02061358 23.72973292 23.3125 26.25 C23.8799292 26.68747559 24.4473584 27.12495117 25.03198242 27.57568359 C29.31863038 30.75914561 32.73283911 32.38033401 38 33 C37.01 33.33 36.02 33.66 35 34 C35 35.65 35 37.3 35 39 C25.43631488 37.79392248 16.50502058 27.70196482 10.73193359 20.39501953 C9.35912622 18.59268042 8.01672451 16.77219745 6.6875 14.9375 C6.26662109 14.35983887 5.84574219 13.78217773 5.41210938 13.18701172 C2.66783895 9.29045705 0.74593006 5.43545338 -1 1 C-0.67 0.67 -0.34 0.34 0 0 Z " fill="#579B3E" transform="translate(607,568)"/>
<path d="M0 0 C0.33 0 0.66 0 1 0 C1.17015625 1.11117188 1.3403125 2.22234375 1.515625 3.3671875 C2.74041788 11.00175842 3.98503689 18.12837643 7.23046875 25.21484375 C8 27 8 27 8 29 C2.72 29 -2.56 29 -8 29 C-7.36771484 27.20755859 -7.36771484 27.20755859 -6.72265625 25.37890625 C-6.16878088 23.77360646 -5.61542312 22.16812802 -5.0625 20.5625 C-4.78470703 19.77939453 -4.50691406 18.99628906 -4.22070312 18.18945312 C-2.57804243 13.38021758 -1.583226 8.90117744 -1.20874023 3.82788086 C-1 2 -1 2 0 0 Z " fill="#449946" transform="translate(642,499)"/>
<path d="M0 0 C0.495 1.485 0.495 1.485 1 3 C-0.26232499 5.2623086 -1.53896656 7.23448815 -3.0625 9.3125 C-3.50424561 9.92262939 -3.94599121 10.53275879 -4.40112305 11.16137695 C-8.02894509 16.01440357 -12.03674771 20.40042571 -16.3125 24.6875 C-16.89845947 25.2750708 -17.48441895 25.8626416 -18.08813477 26.46801758 C-25.65824382 33.84388292 -25.65824382 33.84388292 -30.8125 34.1875 C-31.534375 34.125625 -32.25625 34.06375 -33 34 C-33 32.35 -33 30.7 -33 29 C-32.41734375 28.76667969 -31.8346875 28.53335938 -31.234375 28.29296875 C-19.31282815 22.98825529 -11.09807977 13.81741036 -3.7421875 3.3359375 C-2 1 -2 1 0 0 Z " fill="#399541" transform="translate(675,573)"/>
<path d="M0 0 C0.33 0 0.66 0 1 0 C1.02888146 3.31248187 1.04675799 6.62493167 1.0625 9.9375 C1.07087891 10.88302734 1.07925781 11.82855469 1.08789062 12.80273438 C1.09111328 13.70185547 1.09433594 14.60097656 1.09765625 15.52734375 C1.10289307 16.35999756 1.10812988 17.19265137 1.11352539 18.05053711 C1 20 1 20 0 21 C-2.31 21 -4.62 21 -7 21 C-4.69 14.07 -2.38 7.14 0 0 Z " fill="#47A340" transform="translate(641,507)"/>
<path d="M0 0 C0 1.32 0 2.64 0 4 C-3.22791555 6.1519437 -4.28400809 6.20086443 -8 6 C-6.24081631 1.94034532 -4.71412298 0 0 0 Z " fill="#347A3B" transform="translate(685,563)"/>
<path d="M0 0 C2.9375 1.25 2.9375 1.25 6 3 C6.875 5.1875 6.875 5.1875 7 7 C4.625 6.6875 4.625 6.6875 2 6 C0 3 0 3 0 0 Z " fill="#2F813E" transform="translate(600,562)"/>
<path d="M0 0 C1.31471568 0.28151087 2.62675767 0.57553339 3.9375 0.875 C4.66839844 1.03742188 5.39929688 1.19984375 6.15234375 1.3671875 C8 2 8 2 9 4 C6.03 4 3.06 4 0 4 C0 2.68 0 1.36 0 0 Z " fill="#72BB60" transform="translate(473,372)"/>
</svg>
